G04 #@! TF.FileFunction,Copper,L2,Bot,Signal*
%FSLAX46Y46*%
G04 Gerber Fmt 4.6, Leading zero omitted, Abs format (unit mm)*
G04 Created by KiCad (PCBNEW 4.0.2-stable) date 20/7/2016 18:22:48*
%MOMM*%
G01*
G04 APERTURE LIST*
%ADD10C,0.100000*%
%ADD11R,1.727200X1.727200*%
%ADD12O,1.727200X1.727200*%
%ADD13R,2.000000X1.900000*%
%ADD14C,1.900000*%
%ADD15C,1.524000*%
%ADD16C,6.200000*%
%ADD17C,0.600000*%
%ADD18C,0.250000*%
%ADD19C,0.254000*%
G04 APERTURE END LIST*
D10*
D11*
X93002800Y-67744900D03*
D12*
X93002800Y-65204900D03*
X95542800Y-67744900D03*
X95542800Y-65204900D03*
X98082800Y-67744900D03*
X98082800Y-65204900D03*
X100622800Y-67744900D03*
X100622800Y-65204900D03*
X103162800Y-67744900D03*
X103162800Y-65204900D03*
X105702800Y-67744900D03*
X105702800Y-65204900D03*
X108242800Y-67744900D03*
X108242800Y-65204900D03*
X110782800Y-67744900D03*
X110782800Y-65204900D03*
X113322800Y-67744900D03*
X113322800Y-65204900D03*
X115862800Y-67744900D03*
X115862800Y-65204900D03*
X118302800Y-67744900D03*
X118402800Y-65204900D03*
X120942800Y-67744900D03*
X120942800Y-65204900D03*
X123482800Y-67744900D03*
X123482800Y-65204900D03*
X126022800Y-67744900D03*
X126022800Y-65204900D03*
X128562800Y-67744900D03*
X128562800Y-65204900D03*
X131102800Y-67744900D03*
X131102800Y-65204900D03*
X133642800Y-67744900D03*
X133642800Y-65204900D03*
X136182800Y-67744900D03*
X136182800Y-65204900D03*
X138722800Y-67744900D03*
X138722800Y-65204900D03*
X141262800Y-67744900D03*
X141262800Y-65204900D03*
D13*
X117398800Y-100355400D03*
D14*
X117398800Y-97815400D03*
D13*
X109270800Y-100355400D03*
D14*
X109270800Y-97815400D03*
D13*
X124510800Y-100355400D03*
D14*
X124510800Y-97815400D03*
D13*
X101142800Y-75463400D03*
D14*
X101142800Y-72923400D03*
D13*
X101142800Y-100355400D03*
D14*
X101142800Y-97815400D03*
D13*
X109270800Y-75463400D03*
D14*
X109270800Y-72923400D03*
D13*
X117398800Y-75463400D03*
D14*
X117398800Y-72923400D03*
D13*
X125018800Y-75463400D03*
D14*
X125018800Y-72923400D03*
D15*
X117398800Y-115595400D03*
X117398800Y-105435400D03*
X109270800Y-115595400D03*
X109270800Y-105435400D03*
X124510800Y-115595400D03*
X124510800Y-105435400D03*
X101142800Y-90195400D03*
X101142800Y-80035400D03*
X101142800Y-115595400D03*
X101142800Y-105435400D03*
X109270800Y-90195400D03*
X109270800Y-80035400D03*
X117398800Y-90195400D03*
X117398800Y-80035400D03*
X125018800Y-90195400D03*
X125018800Y-80035400D03*
D16*
X146132800Y-66263400D03*
X146132800Y-115763400D03*
X88132800Y-115763400D03*
X88132800Y-66263400D03*
D17*
X127695960Y-70106540D03*
D18*
X127695960Y-70106540D02*
X127322580Y-70101460D01*
X127322580Y-70101460D02*
X123131580Y-70101460D01*
X123131580Y-70101460D02*
X120812560Y-67782440D01*
X101142800Y-90195400D02*
X109270800Y-90195400D01*
X109270800Y-90195400D02*
X117398800Y-90195400D01*
X125018800Y-90195400D02*
X128295400Y-90195400D01*
X141132560Y-77358240D02*
X141132560Y-67782440D01*
X128295400Y-90195400D02*
X141132560Y-77358240D01*
X117398800Y-115595400D02*
X109270800Y-115595400D01*
X109270800Y-115595400D02*
X101142800Y-115595400D01*
X101142800Y-115595400D02*
X99110800Y-113563400D01*
X99110800Y-113563400D02*
X99110800Y-92227400D01*
X99110800Y-92227400D02*
X101142800Y-90195400D01*
X117398800Y-90195400D02*
X125018800Y-90195400D01*
X124510800Y-115595400D02*
X117398800Y-115595400D01*
D19*
G36*
X103289800Y-67617900D02*
X103309800Y-67617900D01*
X103309800Y-67871900D01*
X103289800Y-67871900D01*
X103289800Y-69078717D01*
X103521826Y-69199858D01*
X103937747Y-69027588D01*
X104369621Y-68633390D01*
X104427136Y-68510672D01*
X104643130Y-68833929D01*
X105129311Y-69158785D01*
X105702800Y-69272859D01*
X106276289Y-69158785D01*
X106762470Y-68833929D01*
X106972800Y-68519148D01*
X107183130Y-68833929D01*
X107669311Y-69158785D01*
X108242800Y-69272859D01*
X108816289Y-69158785D01*
X109302470Y-68833929D01*
X109512800Y-68519148D01*
X109723130Y-68833929D01*
X110209311Y-69158785D01*
X110782800Y-69272859D01*
X111356289Y-69158785D01*
X111842470Y-68833929D01*
X112052800Y-68519148D01*
X112263130Y-68833929D01*
X112749311Y-69158785D01*
X113322800Y-69272859D01*
X113896289Y-69158785D01*
X114382470Y-68833929D01*
X114592800Y-68519148D01*
X114803130Y-68833929D01*
X115289311Y-69158785D01*
X115862800Y-69272859D01*
X116436289Y-69158785D01*
X116922470Y-68833929D01*
X117082800Y-68593978D01*
X117243130Y-68833929D01*
X117729311Y-69158785D01*
X118302800Y-69272859D01*
X118876289Y-69158785D01*
X119362470Y-68833929D01*
X119622800Y-68444318D01*
X119883130Y-68833929D01*
X120369311Y-69158785D01*
X120942800Y-69272859D01*
X121180830Y-69225512D01*
X122594179Y-70638861D01*
X122840741Y-70803608D01*
X123131580Y-70861460D01*
X127128426Y-70861460D01*
X127165633Y-70898732D01*
X127509161Y-71041378D01*
X127881127Y-71041702D01*
X128224903Y-70899657D01*
X128488152Y-70636867D01*
X128630798Y-70293339D01*
X128631122Y-69921373D01*
X128489077Y-69577597D01*
X128226287Y-69314348D01*
X127882759Y-69171702D01*
X127510793Y-69171378D01*
X127167017Y-69313423D01*
X127138931Y-69341460D01*
X123446382Y-69341460D01*
X123242693Y-69137771D01*
X123355800Y-69078717D01*
X123355800Y-67871900D01*
X123335800Y-67871900D01*
X123335800Y-67617900D01*
X123355800Y-67617900D01*
X123355800Y-67597900D01*
X123609800Y-67597900D01*
X123609800Y-67617900D01*
X123629800Y-67617900D01*
X123629800Y-67871900D01*
X123609800Y-67871900D01*
X123609800Y-69078717D01*
X123841826Y-69199858D01*
X124257747Y-69027588D01*
X124689621Y-68633390D01*
X124747136Y-68510672D01*
X124963130Y-68833929D01*
X125449311Y-69158785D01*
X126022800Y-69272859D01*
X126596289Y-69158785D01*
X127082470Y-68833929D01*
X127292800Y-68519148D01*
X127503130Y-68833929D01*
X127989311Y-69158785D01*
X128562800Y-69272859D01*
X129136289Y-69158785D01*
X129622470Y-68833929D01*
X129832800Y-68519148D01*
X130043130Y-68833929D01*
X130529311Y-69158785D01*
X131102800Y-69272859D01*
X131676289Y-69158785D01*
X132162470Y-68833929D01*
X132372800Y-68519148D01*
X132583130Y-68833929D01*
X133069311Y-69158785D01*
X133642800Y-69272859D01*
X134216289Y-69158785D01*
X134702470Y-68833929D01*
X134912800Y-68519148D01*
X135123130Y-68833929D01*
X135609311Y-69158785D01*
X136182800Y-69272859D01*
X136756289Y-69158785D01*
X137242470Y-68833929D01*
X137452800Y-68519148D01*
X137663130Y-68833929D01*
X138149311Y-69158785D01*
X138722800Y-69272859D01*
X139296289Y-69158785D01*
X139782470Y-68833929D01*
X139998464Y-68510672D01*
X140055979Y-68633390D01*
X140487853Y-69027588D01*
X140903774Y-69199858D01*
X141135800Y-69078717D01*
X141135800Y-67871900D01*
X141115800Y-67871900D01*
X141115800Y-67617900D01*
X141135800Y-67617900D01*
X141135800Y-67597900D01*
X141389800Y-67597900D01*
X141389800Y-67617900D01*
X141409800Y-67617900D01*
X141409800Y-67871900D01*
X141389800Y-67871900D01*
X141389800Y-69078717D01*
X141621826Y-69199858D01*
X142037747Y-69027588D01*
X142469621Y-68633390D01*
X142717768Y-68103927D01*
X142597270Y-67871902D01*
X142756143Y-67871902D01*
X142964575Y-68376344D01*
X144014330Y-69427933D01*
X145386603Y-69997750D01*
X146872478Y-69999047D01*
X148245744Y-69431625D01*
X148947800Y-68730793D01*
X148947800Y-113296614D01*
X148251270Y-112598867D01*
X146878997Y-112029050D01*
X145393122Y-112027753D01*
X144019856Y-112595175D01*
X142968267Y-113644930D01*
X142398450Y-115017203D01*
X142397153Y-116503078D01*
X142964575Y-117876344D01*
X143665407Y-118578400D01*
X90599586Y-118578400D01*
X91297333Y-117881870D01*
X91839737Y-116575613D01*
X100342192Y-116575613D01*
X100411657Y-116817797D01*
X100935102Y-117004544D01*
X101490168Y-116976762D01*
X101873943Y-116817797D01*
X101943408Y-116575613D01*
X108470192Y-116575613D01*
X108539657Y-116817797D01*
X109063102Y-117004544D01*
X109618168Y-116976762D01*
X110001943Y-116817797D01*
X110071408Y-116575613D01*
X116598192Y-116575613D01*
X116667657Y-116817797D01*
X117191102Y-117004544D01*
X117746168Y-116976762D01*
X118129943Y-116817797D01*
X118199408Y-116575613D01*
X123710192Y-116575613D01*
X123779657Y-116817797D01*
X124303102Y-117004544D01*
X124858168Y-116976762D01*
X125241943Y-116817797D01*
X125311408Y-116575613D01*
X124510800Y-115775005D01*
X123710192Y-116575613D01*
X118199408Y-116575613D01*
X117398800Y-115775005D01*
X116598192Y-116575613D01*
X110071408Y-116575613D01*
X109270800Y-115775005D01*
X108470192Y-116575613D01*
X101943408Y-116575613D01*
X101142800Y-115775005D01*
X100342192Y-116575613D01*
X91839737Y-116575613D01*
X91867150Y-116509597D01*
X91868129Y-115387702D01*
X99733656Y-115387702D01*
X99761438Y-115942768D01*
X99920403Y-116326543D01*
X100162587Y-116396008D01*
X100963195Y-115595400D01*
X101322405Y-115595400D01*
X102123013Y-116396008D01*
X102365197Y-116326543D01*
X102551944Y-115803098D01*
X102531153Y-115387702D01*
X107861656Y-115387702D01*
X107889438Y-115942768D01*
X108048403Y-116326543D01*
X108290587Y-116396008D01*
X109091195Y-115595400D01*
X109450405Y-115595400D01*
X110251013Y-116396008D01*
X110493197Y-116326543D01*
X110679944Y-115803098D01*
X110659153Y-115387702D01*
X115989656Y-115387702D01*
X116017438Y-115942768D01*
X116176403Y-116326543D01*
X116418587Y-116396008D01*
X117219195Y-115595400D01*
X117578405Y-115595400D01*
X118379013Y-116396008D01*
X118621197Y-116326543D01*
X118807944Y-115803098D01*
X118787153Y-115387702D01*
X123101656Y-115387702D01*
X123129438Y-115942768D01*
X123288403Y-116326543D01*
X123530587Y-116396008D01*
X124331195Y-115595400D01*
X124690405Y-115595400D01*
X125491013Y-116396008D01*
X125733197Y-116326543D01*
X125919944Y-115803098D01*
X125892162Y-115248032D01*
X125733197Y-114864257D01*
X125491013Y-114794792D01*
X124690405Y-115595400D01*
X124331195Y-115595400D01*
X123530587Y-114794792D01*
X123288403Y-114864257D01*
X123101656Y-115387702D01*
X118787153Y-115387702D01*
X118780162Y-115248032D01*
X118621197Y-114864257D01*
X118379013Y-114794792D01*
X117578405Y-115595400D01*
X117219195Y-115595400D01*
X116418587Y-114794792D01*
X116176403Y-114864257D01*
X115989656Y-115387702D01*
X110659153Y-115387702D01*
X110652162Y-115248032D01*
X110493197Y-114864257D01*
X110251013Y-114794792D01*
X109450405Y-115595400D01*
X109091195Y-115595400D01*
X108290587Y-114794792D01*
X108048403Y-114864257D01*
X107861656Y-115387702D01*
X102531153Y-115387702D01*
X102524162Y-115248032D01*
X102365197Y-114864257D01*
X102123013Y-114794792D01*
X101322405Y-115595400D01*
X100963195Y-115595400D01*
X100162587Y-114794792D01*
X99920403Y-114864257D01*
X99733656Y-115387702D01*
X91868129Y-115387702D01*
X91868447Y-115023722D01*
X91699644Y-114615187D01*
X100342192Y-114615187D01*
X101142800Y-115415795D01*
X101943408Y-114615187D01*
X108470192Y-114615187D01*
X109270800Y-115415795D01*
X110071408Y-114615187D01*
X116598192Y-114615187D01*
X117398800Y-115415795D01*
X118199408Y-114615187D01*
X123710192Y-114615187D01*
X124510800Y-115415795D01*
X125311408Y-114615187D01*
X125241943Y-114373003D01*
X124718498Y-114186256D01*
X124163432Y-114214038D01*
X123779657Y-114373003D01*
X123710192Y-114615187D01*
X118199408Y-114615187D01*
X118129943Y-114373003D01*
X117606498Y-114186256D01*
X117051432Y-114214038D01*
X116667657Y-114373003D01*
X116598192Y-114615187D01*
X110071408Y-114615187D01*
X110001943Y-114373003D01*
X109478498Y-114186256D01*
X108923432Y-114214038D01*
X108539657Y-114373003D01*
X108470192Y-114615187D01*
X101943408Y-114615187D01*
X101873943Y-114373003D01*
X101350498Y-114186256D01*
X100795432Y-114214038D01*
X100411657Y-114373003D01*
X100342192Y-114615187D01*
X91699644Y-114615187D01*
X91301025Y-113650456D01*
X90251270Y-112598867D01*
X88878997Y-112029050D01*
X87393122Y-112027753D01*
X86019856Y-112595175D01*
X85317800Y-113296007D01*
X85317800Y-105712061D01*
X99745558Y-105712061D01*
X99957790Y-106225703D01*
X100350430Y-106619029D01*
X100863700Y-106832157D01*
X101419461Y-106832642D01*
X101933103Y-106620410D01*
X102326429Y-106227770D01*
X102539557Y-105714500D01*
X102539559Y-105712061D01*
X107873558Y-105712061D01*
X108085790Y-106225703D01*
X108478430Y-106619029D01*
X108991700Y-106832157D01*
X109547461Y-106832642D01*
X110061103Y-106620410D01*
X110454429Y-106227770D01*
X110667557Y-105714500D01*
X110667559Y-105712061D01*
X116001558Y-105712061D01*
X116213790Y-106225703D01*
X116606430Y-106619029D01*
X117119700Y-106832157D01*
X117675461Y-106832642D01*
X118189103Y-106620410D01*
X118582429Y-106227770D01*
X118795557Y-105714500D01*
X118795559Y-105712061D01*
X123113558Y-105712061D01*
X123325790Y-106225703D01*
X123718430Y-106619029D01*
X124231700Y-106832157D01*
X124787461Y-106832642D01*
X125301103Y-106620410D01*
X125694429Y-106227770D01*
X125907557Y-105714500D01*
X125908042Y-105158739D01*
X125695810Y-104645097D01*
X125303170Y-104251771D01*
X124789900Y-104038643D01*
X124234139Y-104038158D01*
X123720497Y-104250390D01*
X123327171Y-104643030D01*
X123114043Y-105156300D01*
X123113558Y-105712061D01*
X118795559Y-105712061D01*
X118796042Y-105158739D01*
X118583810Y-104645097D01*
X118191170Y-104251771D01*
X117677900Y-104038643D01*
X117122139Y-104038158D01*
X116608497Y-104250390D01*
X116215171Y-104643030D01*
X116002043Y-105156300D01*
X116001558Y-105712061D01*
X110667559Y-105712061D01*
X110668042Y-105158739D01*
X110455810Y-104645097D01*
X110063170Y-104251771D01*
X109549900Y-104038643D01*
X108994139Y-104038158D01*
X108480497Y-104250390D01*
X108087171Y-104643030D01*
X107874043Y-105156300D01*
X107873558Y-105712061D01*
X102539559Y-105712061D01*
X102540042Y-105158739D01*
X102327810Y-104645097D01*
X101935170Y-104251771D01*
X101421900Y-104038643D01*
X100866139Y-104038158D01*
X100352497Y-104250390D01*
X99959171Y-104643030D01*
X99746043Y-105156300D01*
X99745558Y-105712061D01*
X85317800Y-105712061D01*
X85317800Y-99405400D01*
X99495360Y-99405400D01*
X99495360Y-101305400D01*
X99539638Y-101540717D01*
X99678710Y-101756841D01*
X99890910Y-101901831D01*
X100142800Y-101952840D01*
X102142800Y-101952840D01*
X102378117Y-101908562D01*
X102594241Y-101769490D01*
X102739231Y-101557290D01*
X102790240Y-101305400D01*
X102790240Y-99405400D01*
X107623360Y-99405400D01*
X107623360Y-101305400D01*
X107667638Y-101540717D01*
X107806710Y-101756841D01*
X108018910Y-101901831D01*
X108270800Y-101952840D01*
X110270800Y-101952840D01*
X110506117Y-101908562D01*
X110722241Y-101769490D01*
X110867231Y-101557290D01*
X110918240Y-101305400D01*
X110918240Y-99405400D01*
X115751360Y-99405400D01*
X115751360Y-101305400D01*
X115795638Y-101540717D01*
X115934710Y-101756841D01*
X116146910Y-101901831D01*
X116398800Y-101952840D01*
X118398800Y-101952840D01*
X118634117Y-101908562D01*
X118850241Y-101769490D01*
X118995231Y-101557290D01*
X119046240Y-101305400D01*
X119046240Y-99405400D01*
X122863360Y-99405400D01*
X122863360Y-101305400D01*
X122907638Y-101540717D01*
X123046710Y-101756841D01*
X123258910Y-101901831D01*
X123510800Y-101952840D01*
X125510800Y-101952840D01*
X125746117Y-101908562D01*
X125962241Y-101769490D01*
X126107231Y-101557290D01*
X126158240Y-101305400D01*
X126158240Y-99405400D01*
X126113962Y-99170083D01*
X125974890Y-98953959D01*
X125762690Y-98808969D01*
X125759608Y-98808345D01*
X125853714Y-98714403D01*
X126095524Y-98132059D01*
X126096075Y-97501507D01*
X125855281Y-96918743D01*
X125409803Y-96472486D01*
X124827459Y-96230676D01*
X124196907Y-96230125D01*
X123614143Y-96470919D01*
X123167886Y-96916397D01*
X122926076Y-97498741D01*
X122925525Y-98129293D01*
X123166319Y-98712057D01*
X123263829Y-98809737D01*
X123059359Y-98941310D01*
X122914369Y-99153510D01*
X122863360Y-99405400D01*
X119046240Y-99405400D01*
X119001962Y-99170083D01*
X118862890Y-98953959D01*
X118650690Y-98808969D01*
X118647608Y-98808345D01*
X118741714Y-98714403D01*
X118983524Y-98132059D01*
X118984075Y-97501507D01*
X118743281Y-96918743D01*
X118297803Y-96472486D01*
X117715459Y-96230676D01*
X117084907Y-96230125D01*
X116502143Y-96470919D01*
X116055886Y-96916397D01*
X115814076Y-97498741D01*
X115813525Y-98129293D01*
X116054319Y-98712057D01*
X116151829Y-98809737D01*
X115947359Y-98941310D01*
X115802369Y-99153510D01*
X115751360Y-99405400D01*
X110918240Y-99405400D01*
X110873962Y-99170083D01*
X110734890Y-98953959D01*
X110522690Y-98808969D01*
X110519608Y-98808345D01*
X110613714Y-98714403D01*
X110855524Y-98132059D01*
X110856075Y-97501507D01*
X110615281Y-96918743D01*
X110169803Y-96472486D01*
X109587459Y-96230676D01*
X108956907Y-96230125D01*
X108374143Y-96470919D01*
X107927886Y-96916397D01*
X107686076Y-97498741D01*
X107685525Y-98129293D01*
X107926319Y-98712057D01*
X108023829Y-98809737D01*
X107819359Y-98941310D01*
X107674369Y-99153510D01*
X107623360Y-99405400D01*
X102790240Y-99405400D01*
X102745962Y-99170083D01*
X102606890Y-98953959D01*
X102394690Y-98808969D01*
X102391608Y-98808345D01*
X102485714Y-98714403D01*
X102727524Y-98132059D01*
X102728075Y-97501507D01*
X102487281Y-96918743D01*
X102041803Y-96472486D01*
X101459459Y-96230676D01*
X100828907Y-96230125D01*
X100246143Y-96470919D01*
X99799886Y-96916397D01*
X99558076Y-97498741D01*
X99557525Y-98129293D01*
X99798319Y-98712057D01*
X99895829Y-98809737D01*
X99691359Y-98941310D01*
X99546369Y-99153510D01*
X99495360Y-99405400D01*
X85317800Y-99405400D01*
X85317800Y-91175613D01*
X100342192Y-91175613D01*
X100411657Y-91417797D01*
X100935102Y-91604544D01*
X101490168Y-91576762D01*
X101873943Y-91417797D01*
X101943408Y-91175613D01*
X108470192Y-91175613D01*
X108539657Y-91417797D01*
X109063102Y-91604544D01*
X109618168Y-91576762D01*
X110001943Y-91417797D01*
X110071408Y-91175613D01*
X116598192Y-91175613D01*
X116667657Y-91417797D01*
X117191102Y-91604544D01*
X117746168Y-91576762D01*
X118129943Y-91417797D01*
X118199408Y-91175613D01*
X124218192Y-91175613D01*
X124287657Y-91417797D01*
X124811102Y-91604544D01*
X125366168Y-91576762D01*
X125749943Y-91417797D01*
X125819408Y-91175613D01*
X125018800Y-90375005D01*
X124218192Y-91175613D01*
X118199408Y-91175613D01*
X117398800Y-90375005D01*
X116598192Y-91175613D01*
X110071408Y-91175613D01*
X109270800Y-90375005D01*
X108470192Y-91175613D01*
X101943408Y-91175613D01*
X101142800Y-90375005D01*
X100342192Y-91175613D01*
X85317800Y-91175613D01*
X85317800Y-89987702D01*
X99733656Y-89987702D01*
X99761438Y-90542768D01*
X99920403Y-90926543D01*
X100162587Y-90996008D01*
X100963195Y-90195400D01*
X101322405Y-90195400D01*
X102123013Y-90996008D01*
X102365197Y-90926543D01*
X102551944Y-90403098D01*
X102531153Y-89987702D01*
X107861656Y-89987702D01*
X107889438Y-90542768D01*
X108048403Y-90926543D01*
X108290587Y-90996008D01*
X109091195Y-90195400D01*
X109450405Y-90195400D01*
X110251013Y-90996008D01*
X110493197Y-90926543D01*
X110679944Y-90403098D01*
X110659153Y-89987702D01*
X115989656Y-89987702D01*
X116017438Y-90542768D01*
X116176403Y-90926543D01*
X116418587Y-90996008D01*
X117219195Y-90195400D01*
X117578405Y-90195400D01*
X118379013Y-90996008D01*
X118621197Y-90926543D01*
X118807944Y-90403098D01*
X118787153Y-89987702D01*
X123609656Y-89987702D01*
X123637438Y-90542768D01*
X123796403Y-90926543D01*
X124038587Y-90996008D01*
X124839195Y-90195400D01*
X125198405Y-90195400D01*
X125999013Y-90996008D01*
X126241197Y-90926543D01*
X126427944Y-90403098D01*
X126400162Y-89848032D01*
X126241197Y-89464257D01*
X125999013Y-89394792D01*
X125198405Y-90195400D01*
X124839195Y-90195400D01*
X124038587Y-89394792D01*
X123796403Y-89464257D01*
X123609656Y-89987702D01*
X118787153Y-89987702D01*
X118780162Y-89848032D01*
X118621197Y-89464257D01*
X118379013Y-89394792D01*
X117578405Y-90195400D01*
X117219195Y-90195400D01*
X116418587Y-89394792D01*
X116176403Y-89464257D01*
X115989656Y-89987702D01*
X110659153Y-89987702D01*
X110652162Y-89848032D01*
X110493197Y-89464257D01*
X110251013Y-89394792D01*
X109450405Y-90195400D01*
X109091195Y-90195400D01*
X108290587Y-89394792D01*
X108048403Y-89464257D01*
X107861656Y-89987702D01*
X102531153Y-89987702D01*
X102524162Y-89848032D01*
X102365197Y-89464257D01*
X102123013Y-89394792D01*
X101322405Y-90195400D01*
X100963195Y-90195400D01*
X100162587Y-89394792D01*
X99920403Y-89464257D01*
X99733656Y-89987702D01*
X85317800Y-89987702D01*
X85317800Y-89215187D01*
X100342192Y-89215187D01*
X101142800Y-90015795D01*
X101943408Y-89215187D01*
X108470192Y-89215187D01*
X109270800Y-90015795D01*
X110071408Y-89215187D01*
X116598192Y-89215187D01*
X117398800Y-90015795D01*
X118199408Y-89215187D01*
X124218192Y-89215187D01*
X125018800Y-90015795D01*
X125819408Y-89215187D01*
X125749943Y-88973003D01*
X125226498Y-88786256D01*
X124671432Y-88814038D01*
X124287657Y-88973003D01*
X124218192Y-89215187D01*
X118199408Y-89215187D01*
X118129943Y-88973003D01*
X117606498Y-88786256D01*
X117051432Y-88814038D01*
X116667657Y-88973003D01*
X116598192Y-89215187D01*
X110071408Y-89215187D01*
X110001943Y-88973003D01*
X109478498Y-88786256D01*
X108923432Y-88814038D01*
X108539657Y-88973003D01*
X108470192Y-89215187D01*
X101943408Y-89215187D01*
X101873943Y-88973003D01*
X101350498Y-88786256D01*
X100795432Y-88814038D01*
X100411657Y-88973003D01*
X100342192Y-89215187D01*
X85317800Y-89215187D01*
X85317800Y-80312061D01*
X99745558Y-80312061D01*
X99957790Y-80825703D01*
X100350430Y-81219029D01*
X100863700Y-81432157D01*
X101419461Y-81432642D01*
X101933103Y-81220410D01*
X102326429Y-80827770D01*
X102539557Y-80314500D01*
X102539559Y-80312061D01*
X107873558Y-80312061D01*
X108085790Y-80825703D01*
X108478430Y-81219029D01*
X108991700Y-81432157D01*
X109547461Y-81432642D01*
X110061103Y-81220410D01*
X110454429Y-80827770D01*
X110667557Y-80314500D01*
X110667559Y-80312061D01*
X116001558Y-80312061D01*
X116213790Y-80825703D01*
X116606430Y-81219029D01*
X117119700Y-81432157D01*
X117675461Y-81432642D01*
X118189103Y-81220410D01*
X118582429Y-80827770D01*
X118795557Y-80314500D01*
X118795559Y-80312061D01*
X123621558Y-80312061D01*
X123833790Y-80825703D01*
X124226430Y-81219029D01*
X124739700Y-81432157D01*
X125295461Y-81432642D01*
X125809103Y-81220410D01*
X126202429Y-80827770D01*
X126415557Y-80314500D01*
X126416042Y-79758739D01*
X126203810Y-79245097D01*
X125811170Y-78851771D01*
X125297900Y-78638643D01*
X124742139Y-78638158D01*
X124228497Y-78850390D01*
X123835171Y-79243030D01*
X123622043Y-79756300D01*
X123621558Y-80312061D01*
X118795559Y-80312061D01*
X118796042Y-79758739D01*
X118583810Y-79245097D01*
X118191170Y-78851771D01*
X117677900Y-78638643D01*
X117122139Y-78638158D01*
X116608497Y-78850390D01*
X116215171Y-79243030D01*
X116002043Y-79756300D01*
X116001558Y-80312061D01*
X110667559Y-80312061D01*
X110668042Y-79758739D01*
X110455810Y-79245097D01*
X110063170Y-78851771D01*
X109549900Y-78638643D01*
X108994139Y-78638158D01*
X108480497Y-78850390D01*
X108087171Y-79243030D01*
X107874043Y-79756300D01*
X107873558Y-80312061D01*
X102539559Y-80312061D01*
X102540042Y-79758739D01*
X102327810Y-79245097D01*
X101935170Y-78851771D01*
X101421900Y-78638643D01*
X100866139Y-78638158D01*
X100352497Y-78850390D01*
X99959171Y-79243030D01*
X99746043Y-79756300D01*
X99745558Y-80312061D01*
X85317800Y-80312061D01*
X85317800Y-74513400D01*
X99495360Y-74513400D01*
X99495360Y-76413400D01*
X99539638Y-76648717D01*
X99678710Y-76864841D01*
X99890910Y-77009831D01*
X100142800Y-77060840D01*
X102142800Y-77060840D01*
X102378117Y-77016562D01*
X102594241Y-76877490D01*
X102739231Y-76665290D01*
X102790240Y-76413400D01*
X102790240Y-74513400D01*
X107623360Y-74513400D01*
X107623360Y-76413400D01*
X107667638Y-76648717D01*
X107806710Y-76864841D01*
X108018910Y-77009831D01*
X108270800Y-77060840D01*
X110270800Y-77060840D01*
X110506117Y-77016562D01*
X110722241Y-76877490D01*
X110867231Y-76665290D01*
X110918240Y-76413400D01*
X110918240Y-74513400D01*
X115751360Y-74513400D01*
X115751360Y-76413400D01*
X115795638Y-76648717D01*
X115934710Y-76864841D01*
X116146910Y-77009831D01*
X116398800Y-77060840D01*
X118398800Y-77060840D01*
X118634117Y-77016562D01*
X118850241Y-76877490D01*
X118995231Y-76665290D01*
X119046240Y-76413400D01*
X119046240Y-74513400D01*
X123371360Y-74513400D01*
X123371360Y-76413400D01*
X123415638Y-76648717D01*
X123554710Y-76864841D01*
X123766910Y-77009831D01*
X124018800Y-77060840D01*
X126018800Y-77060840D01*
X126254117Y-77016562D01*
X126470241Y-76877490D01*
X126615231Y-76665290D01*
X126666240Y-76413400D01*
X126666240Y-74513400D01*
X126621962Y-74278083D01*
X126482890Y-74061959D01*
X126270690Y-73916969D01*
X126267608Y-73916345D01*
X126361714Y-73822403D01*
X126603524Y-73240059D01*
X126604075Y-72609507D01*
X126363281Y-72026743D01*
X125917803Y-71580486D01*
X125335459Y-71338676D01*
X124704907Y-71338125D01*
X124122143Y-71578919D01*
X123675886Y-72024397D01*
X123434076Y-72606741D01*
X123433525Y-73237293D01*
X123674319Y-73820057D01*
X123771829Y-73917737D01*
X123567359Y-74049310D01*
X123422369Y-74261510D01*
X123371360Y-74513400D01*
X119046240Y-74513400D01*
X119001962Y-74278083D01*
X118862890Y-74061959D01*
X118650690Y-73916969D01*
X118647608Y-73916345D01*
X118741714Y-73822403D01*
X118983524Y-73240059D01*
X118984075Y-72609507D01*
X118743281Y-72026743D01*
X118297803Y-71580486D01*
X117715459Y-71338676D01*
X117084907Y-71338125D01*
X116502143Y-71578919D01*
X116055886Y-72024397D01*
X115814076Y-72606741D01*
X115813525Y-73237293D01*
X116054319Y-73820057D01*
X116151829Y-73917737D01*
X115947359Y-74049310D01*
X115802369Y-74261510D01*
X115751360Y-74513400D01*
X110918240Y-74513400D01*
X110873962Y-74278083D01*
X110734890Y-74061959D01*
X110522690Y-73916969D01*
X110519608Y-73916345D01*
X110613714Y-73822403D01*
X110855524Y-73240059D01*
X110856075Y-72609507D01*
X110615281Y-72026743D01*
X110169803Y-71580486D01*
X109587459Y-71338676D01*
X108956907Y-71338125D01*
X108374143Y-71578919D01*
X107927886Y-72024397D01*
X107686076Y-72606741D01*
X107685525Y-73237293D01*
X107926319Y-73820057D01*
X108023829Y-73917737D01*
X107819359Y-74049310D01*
X107674369Y-74261510D01*
X107623360Y-74513400D01*
X102790240Y-74513400D01*
X102745962Y-74278083D01*
X102606890Y-74061959D01*
X102394690Y-73916969D01*
X102391608Y-73916345D01*
X102485714Y-73822403D01*
X102727524Y-73240059D01*
X102728075Y-72609507D01*
X102487281Y-72026743D01*
X102041803Y-71580486D01*
X101459459Y-71338676D01*
X100828907Y-71338125D01*
X100246143Y-71578919D01*
X99799886Y-72024397D01*
X99558076Y-72606741D01*
X99557525Y-73237293D01*
X99798319Y-73820057D01*
X99895829Y-73917737D01*
X99691359Y-74049310D01*
X99546369Y-74261510D01*
X99495360Y-74513400D01*
X85317800Y-74513400D01*
X85317800Y-68730186D01*
X86014330Y-69427933D01*
X87386603Y-69997750D01*
X88872478Y-69999047D01*
X90245744Y-69431625D01*
X91297333Y-68381870D01*
X91491760Y-67913637D01*
X91491760Y-68608500D01*
X91536038Y-68843817D01*
X91675110Y-69059941D01*
X91887310Y-69204931D01*
X92139200Y-69255940D01*
X93866400Y-69255940D01*
X94101717Y-69211662D01*
X94317841Y-69072590D01*
X94462831Y-68860390D01*
X94471664Y-68816769D01*
X94483130Y-68833929D01*
X94969311Y-69158785D01*
X95542800Y-69272859D01*
X96116289Y-69158785D01*
X96602470Y-68833929D01*
X96812800Y-68519148D01*
X97023130Y-68833929D01*
X97509311Y-69158785D01*
X98082800Y-69272859D01*
X98656289Y-69158785D01*
X99142470Y-68833929D01*
X99352800Y-68519148D01*
X99563130Y-68833929D01*
X100049311Y-69158785D01*
X100622800Y-69272859D01*
X101196289Y-69158785D01*
X101682470Y-68833929D01*
X101898464Y-68510672D01*
X101955979Y-68633390D01*
X102387853Y-69027588D01*
X102803774Y-69199858D01*
X103035800Y-69078717D01*
X103035800Y-67871900D01*
X103015800Y-67871900D01*
X103015800Y-67617900D01*
X103035800Y-67617900D01*
X103035800Y-67597900D01*
X103289800Y-67597900D01*
X103289800Y-67617900D01*
X103289800Y-67617900D01*
G37*
X103289800Y-67617900D02*
X103309800Y-67617900D01*
X103309800Y-67871900D01*
X103289800Y-67871900D01*
X103289800Y-69078717D01*
X103521826Y-69199858D01*
X103937747Y-69027588D01*
X104369621Y-68633390D01*
X104427136Y-68510672D01*
X104643130Y-68833929D01*
X105129311Y-69158785D01*
X105702800Y-69272859D01*
X106276289Y-69158785D01*
X106762470Y-68833929D01*
X106972800Y-68519148D01*
X107183130Y-68833929D01*
X107669311Y-69158785D01*
X108242800Y-69272859D01*
X108816289Y-69158785D01*
X109302470Y-68833929D01*
X109512800Y-68519148D01*
X109723130Y-68833929D01*
X110209311Y-69158785D01*
X110782800Y-69272859D01*
X111356289Y-69158785D01*
X111842470Y-68833929D01*
X112052800Y-68519148D01*
X112263130Y-68833929D01*
X112749311Y-69158785D01*
X113322800Y-69272859D01*
X113896289Y-69158785D01*
X114382470Y-68833929D01*
X114592800Y-68519148D01*
X114803130Y-68833929D01*
X115289311Y-69158785D01*
X115862800Y-69272859D01*
X116436289Y-69158785D01*
X116922470Y-68833929D01*
X117082800Y-68593978D01*
X117243130Y-68833929D01*
X117729311Y-69158785D01*
X118302800Y-69272859D01*
X118876289Y-69158785D01*
X119362470Y-68833929D01*
X119622800Y-68444318D01*
X119883130Y-68833929D01*
X120369311Y-69158785D01*
X120942800Y-69272859D01*
X121180830Y-69225512D01*
X122594179Y-70638861D01*
X122840741Y-70803608D01*
X123131580Y-70861460D01*
X127128426Y-70861460D01*
X127165633Y-70898732D01*
X127509161Y-71041378D01*
X127881127Y-71041702D01*
X128224903Y-70899657D01*
X128488152Y-70636867D01*
X128630798Y-70293339D01*
X128631122Y-69921373D01*
X128489077Y-69577597D01*
X128226287Y-69314348D01*
X127882759Y-69171702D01*
X127510793Y-69171378D01*
X127167017Y-69313423D01*
X127138931Y-69341460D01*
X123446382Y-69341460D01*
X123242693Y-69137771D01*
X123355800Y-69078717D01*
X123355800Y-67871900D01*
X123335800Y-67871900D01*
X123335800Y-67617900D01*
X123355800Y-67617900D01*
X123355800Y-67597900D01*
X123609800Y-67597900D01*
X123609800Y-67617900D01*
X123629800Y-67617900D01*
X123629800Y-67871900D01*
X123609800Y-67871900D01*
X123609800Y-69078717D01*
X123841826Y-69199858D01*
X124257747Y-69027588D01*
X124689621Y-68633390D01*
X124747136Y-68510672D01*
X124963130Y-68833929D01*
X125449311Y-69158785D01*
X126022800Y-69272859D01*
X126596289Y-69158785D01*
X127082470Y-68833929D01*
X127292800Y-68519148D01*
X127503130Y-68833929D01*
X127989311Y-69158785D01*
X128562800Y-69272859D01*
X129136289Y-69158785D01*
X129622470Y-68833929D01*
X129832800Y-68519148D01*
X130043130Y-68833929D01*
X130529311Y-69158785D01*
X131102800Y-69272859D01*
X131676289Y-69158785D01*
X132162470Y-68833929D01*
X132372800Y-68519148D01*
X132583130Y-68833929D01*
X133069311Y-69158785D01*
X133642800Y-69272859D01*
X134216289Y-69158785D01*
X134702470Y-68833929D01*
X134912800Y-68519148D01*
X135123130Y-68833929D01*
X135609311Y-69158785D01*
X136182800Y-69272859D01*
X136756289Y-69158785D01*
X137242470Y-68833929D01*
X137452800Y-68519148D01*
X137663130Y-68833929D01*
X138149311Y-69158785D01*
X138722800Y-69272859D01*
X139296289Y-69158785D01*
X139782470Y-68833929D01*
X139998464Y-68510672D01*
X140055979Y-68633390D01*
X140487853Y-69027588D01*
X140903774Y-69199858D01*
X141135800Y-69078717D01*
X141135800Y-67871900D01*
X141115800Y-67871900D01*
X141115800Y-67617900D01*
X141135800Y-67617900D01*
X141135800Y-67597900D01*
X141389800Y-67597900D01*
X141389800Y-67617900D01*
X141409800Y-67617900D01*
X141409800Y-67871900D01*
X141389800Y-67871900D01*
X141389800Y-69078717D01*
X141621826Y-69199858D01*
X142037747Y-69027588D01*
X142469621Y-68633390D01*
X142717768Y-68103927D01*
X142597270Y-67871902D01*
X142756143Y-67871902D01*
X142964575Y-68376344D01*
X144014330Y-69427933D01*
X145386603Y-69997750D01*
X146872478Y-69999047D01*
X148245744Y-69431625D01*
X148947800Y-68730793D01*
X148947800Y-113296614D01*
X148251270Y-112598867D01*
X146878997Y-112029050D01*
X145393122Y-112027753D01*
X144019856Y-112595175D01*
X142968267Y-113644930D01*
X142398450Y-115017203D01*
X142397153Y-116503078D01*
X142964575Y-117876344D01*
X143665407Y-118578400D01*
X90599586Y-118578400D01*
X91297333Y-117881870D01*
X91839737Y-116575613D01*
X100342192Y-116575613D01*
X100411657Y-116817797D01*
X100935102Y-117004544D01*
X101490168Y-116976762D01*
X101873943Y-116817797D01*
X101943408Y-116575613D01*
X108470192Y-116575613D01*
X108539657Y-116817797D01*
X109063102Y-117004544D01*
X109618168Y-116976762D01*
X110001943Y-116817797D01*
X110071408Y-116575613D01*
X116598192Y-116575613D01*
X116667657Y-116817797D01*
X117191102Y-117004544D01*
X117746168Y-116976762D01*
X118129943Y-116817797D01*
X118199408Y-116575613D01*
X123710192Y-116575613D01*
X123779657Y-116817797D01*
X124303102Y-117004544D01*
X124858168Y-116976762D01*
X125241943Y-116817797D01*
X125311408Y-116575613D01*
X124510800Y-115775005D01*
X123710192Y-116575613D01*
X118199408Y-116575613D01*
X117398800Y-115775005D01*
X116598192Y-116575613D01*
X110071408Y-116575613D01*
X109270800Y-115775005D01*
X108470192Y-116575613D01*
X101943408Y-116575613D01*
X101142800Y-115775005D01*
X100342192Y-116575613D01*
X91839737Y-116575613D01*
X91867150Y-116509597D01*
X91868129Y-115387702D01*
X99733656Y-115387702D01*
X99761438Y-115942768D01*
X99920403Y-116326543D01*
X100162587Y-116396008D01*
X100963195Y-115595400D01*
X101322405Y-115595400D01*
X102123013Y-116396008D01*
X102365197Y-116326543D01*
X102551944Y-115803098D01*
X102531153Y-115387702D01*
X107861656Y-115387702D01*
X107889438Y-115942768D01*
X108048403Y-116326543D01*
X108290587Y-116396008D01*
X109091195Y-115595400D01*
X109450405Y-115595400D01*
X110251013Y-116396008D01*
X110493197Y-116326543D01*
X110679944Y-115803098D01*
X110659153Y-115387702D01*
X115989656Y-115387702D01*
X116017438Y-115942768D01*
X116176403Y-116326543D01*
X116418587Y-116396008D01*
X117219195Y-115595400D01*
X117578405Y-115595400D01*
X118379013Y-116396008D01*
X118621197Y-116326543D01*
X118807944Y-115803098D01*
X118787153Y-115387702D01*
X123101656Y-115387702D01*
X123129438Y-115942768D01*
X123288403Y-116326543D01*
X123530587Y-116396008D01*
X124331195Y-115595400D01*
X124690405Y-115595400D01*
X125491013Y-116396008D01*
X125733197Y-116326543D01*
X125919944Y-115803098D01*
X125892162Y-115248032D01*
X125733197Y-114864257D01*
X125491013Y-114794792D01*
X124690405Y-115595400D01*
X124331195Y-115595400D01*
X123530587Y-114794792D01*
X123288403Y-114864257D01*
X123101656Y-115387702D01*
X118787153Y-115387702D01*
X118780162Y-115248032D01*
X118621197Y-114864257D01*
X118379013Y-114794792D01*
X117578405Y-115595400D01*
X117219195Y-115595400D01*
X116418587Y-114794792D01*
X116176403Y-114864257D01*
X115989656Y-115387702D01*
X110659153Y-115387702D01*
X110652162Y-115248032D01*
X110493197Y-114864257D01*
X110251013Y-114794792D01*
X109450405Y-115595400D01*
X109091195Y-115595400D01*
X108290587Y-114794792D01*
X108048403Y-114864257D01*
X107861656Y-115387702D01*
X102531153Y-115387702D01*
X102524162Y-115248032D01*
X102365197Y-114864257D01*
X102123013Y-114794792D01*
X101322405Y-115595400D01*
X100963195Y-115595400D01*
X100162587Y-114794792D01*
X99920403Y-114864257D01*
X99733656Y-115387702D01*
X91868129Y-115387702D01*
X91868447Y-115023722D01*
X91699644Y-114615187D01*
X100342192Y-114615187D01*
X101142800Y-115415795D01*
X101943408Y-114615187D01*
X108470192Y-114615187D01*
X109270800Y-115415795D01*
X110071408Y-114615187D01*
X116598192Y-114615187D01*
X117398800Y-115415795D01*
X118199408Y-114615187D01*
X123710192Y-114615187D01*
X124510800Y-115415795D01*
X125311408Y-114615187D01*
X125241943Y-114373003D01*
X124718498Y-114186256D01*
X124163432Y-114214038D01*
X123779657Y-114373003D01*
X123710192Y-114615187D01*
X118199408Y-114615187D01*
X118129943Y-114373003D01*
X117606498Y-114186256D01*
X117051432Y-114214038D01*
X116667657Y-114373003D01*
X116598192Y-114615187D01*
X110071408Y-114615187D01*
X110001943Y-114373003D01*
X109478498Y-114186256D01*
X108923432Y-114214038D01*
X108539657Y-114373003D01*
X108470192Y-114615187D01*
X101943408Y-114615187D01*
X101873943Y-114373003D01*
X101350498Y-114186256D01*
X100795432Y-114214038D01*
X100411657Y-114373003D01*
X100342192Y-114615187D01*
X91699644Y-114615187D01*
X91301025Y-113650456D01*
X90251270Y-112598867D01*
X88878997Y-112029050D01*
X87393122Y-112027753D01*
X86019856Y-112595175D01*
X85317800Y-113296007D01*
X85317800Y-105712061D01*
X99745558Y-105712061D01*
X99957790Y-106225703D01*
X100350430Y-106619029D01*
X100863700Y-106832157D01*
X101419461Y-106832642D01*
X101933103Y-106620410D01*
X102326429Y-106227770D01*
X102539557Y-105714500D01*
X102539559Y-105712061D01*
X107873558Y-105712061D01*
X108085790Y-106225703D01*
X108478430Y-106619029D01*
X108991700Y-106832157D01*
X109547461Y-106832642D01*
X110061103Y-106620410D01*
X110454429Y-106227770D01*
X110667557Y-105714500D01*
X110667559Y-105712061D01*
X116001558Y-105712061D01*
X116213790Y-106225703D01*
X116606430Y-106619029D01*
X117119700Y-106832157D01*
X117675461Y-106832642D01*
X118189103Y-106620410D01*
X118582429Y-106227770D01*
X118795557Y-105714500D01*
X118795559Y-105712061D01*
X123113558Y-105712061D01*
X123325790Y-106225703D01*
X123718430Y-106619029D01*
X124231700Y-106832157D01*
X124787461Y-106832642D01*
X125301103Y-106620410D01*
X125694429Y-106227770D01*
X125907557Y-105714500D01*
X125908042Y-105158739D01*
X125695810Y-104645097D01*
X125303170Y-104251771D01*
X124789900Y-104038643D01*
X124234139Y-104038158D01*
X123720497Y-104250390D01*
X123327171Y-104643030D01*
X123114043Y-105156300D01*
X123113558Y-105712061D01*
X118795559Y-105712061D01*
X118796042Y-105158739D01*
X118583810Y-104645097D01*
X118191170Y-104251771D01*
X117677900Y-104038643D01*
X117122139Y-104038158D01*
X116608497Y-104250390D01*
X116215171Y-104643030D01*
X116002043Y-105156300D01*
X116001558Y-105712061D01*
X110667559Y-105712061D01*
X110668042Y-105158739D01*
X110455810Y-104645097D01*
X110063170Y-104251771D01*
X109549900Y-104038643D01*
X108994139Y-104038158D01*
X108480497Y-104250390D01*
X108087171Y-104643030D01*
X107874043Y-105156300D01*
X107873558Y-105712061D01*
X102539559Y-105712061D01*
X102540042Y-105158739D01*
X102327810Y-104645097D01*
X101935170Y-104251771D01*
X101421900Y-104038643D01*
X100866139Y-104038158D01*
X100352497Y-104250390D01*
X99959171Y-104643030D01*
X99746043Y-105156300D01*
X99745558Y-105712061D01*
X85317800Y-105712061D01*
X85317800Y-99405400D01*
X99495360Y-99405400D01*
X99495360Y-101305400D01*
X99539638Y-101540717D01*
X99678710Y-101756841D01*
X99890910Y-101901831D01*
X100142800Y-101952840D01*
X102142800Y-101952840D01*
X102378117Y-101908562D01*
X102594241Y-101769490D01*
X102739231Y-101557290D01*
X102790240Y-101305400D01*
X102790240Y-99405400D01*
X107623360Y-99405400D01*
X107623360Y-101305400D01*
X107667638Y-101540717D01*
X107806710Y-101756841D01*
X108018910Y-101901831D01*
X108270800Y-101952840D01*
X110270800Y-101952840D01*
X110506117Y-101908562D01*
X110722241Y-101769490D01*
X110867231Y-101557290D01*
X110918240Y-101305400D01*
X110918240Y-99405400D01*
X115751360Y-99405400D01*
X115751360Y-101305400D01*
X115795638Y-101540717D01*
X115934710Y-101756841D01*
X116146910Y-101901831D01*
X116398800Y-101952840D01*
X118398800Y-101952840D01*
X118634117Y-101908562D01*
X118850241Y-101769490D01*
X118995231Y-101557290D01*
X119046240Y-101305400D01*
X119046240Y-99405400D01*
X122863360Y-99405400D01*
X122863360Y-101305400D01*
X122907638Y-101540717D01*
X123046710Y-101756841D01*
X123258910Y-101901831D01*
X123510800Y-101952840D01*
X125510800Y-101952840D01*
X125746117Y-101908562D01*
X125962241Y-101769490D01*
X126107231Y-101557290D01*
X126158240Y-101305400D01*
X126158240Y-99405400D01*
X126113962Y-99170083D01*
X125974890Y-98953959D01*
X125762690Y-98808969D01*
X125759608Y-98808345D01*
X125853714Y-98714403D01*
X126095524Y-98132059D01*
X126096075Y-97501507D01*
X125855281Y-96918743D01*
X125409803Y-96472486D01*
X124827459Y-96230676D01*
X124196907Y-96230125D01*
X123614143Y-96470919D01*
X123167886Y-96916397D01*
X122926076Y-97498741D01*
X122925525Y-98129293D01*
X123166319Y-98712057D01*
X123263829Y-98809737D01*
X123059359Y-98941310D01*
X122914369Y-99153510D01*
X122863360Y-99405400D01*
X119046240Y-99405400D01*
X119001962Y-99170083D01*
X118862890Y-98953959D01*
X118650690Y-98808969D01*
X118647608Y-98808345D01*
X118741714Y-98714403D01*
X118983524Y-98132059D01*
X118984075Y-97501507D01*
X118743281Y-96918743D01*
X118297803Y-96472486D01*
X117715459Y-96230676D01*
X117084907Y-96230125D01*
X116502143Y-96470919D01*
X116055886Y-96916397D01*
X115814076Y-97498741D01*
X115813525Y-98129293D01*
X116054319Y-98712057D01*
X116151829Y-98809737D01*
X115947359Y-98941310D01*
X115802369Y-99153510D01*
X115751360Y-99405400D01*
X110918240Y-99405400D01*
X110873962Y-99170083D01*
X110734890Y-98953959D01*
X110522690Y-98808969D01*
X110519608Y-98808345D01*
X110613714Y-98714403D01*
X110855524Y-98132059D01*
X110856075Y-97501507D01*
X110615281Y-96918743D01*
X110169803Y-96472486D01*
X109587459Y-96230676D01*
X108956907Y-96230125D01*
X108374143Y-96470919D01*
X107927886Y-96916397D01*
X107686076Y-97498741D01*
X107685525Y-98129293D01*
X107926319Y-98712057D01*
X108023829Y-98809737D01*
X107819359Y-98941310D01*
X107674369Y-99153510D01*
X107623360Y-99405400D01*
X102790240Y-99405400D01*
X102745962Y-99170083D01*
X102606890Y-98953959D01*
X102394690Y-98808969D01*
X102391608Y-98808345D01*
X102485714Y-98714403D01*
X102727524Y-98132059D01*
X102728075Y-97501507D01*
X102487281Y-96918743D01*
X102041803Y-96472486D01*
X101459459Y-96230676D01*
X100828907Y-96230125D01*
X100246143Y-96470919D01*
X99799886Y-96916397D01*
X99558076Y-97498741D01*
X99557525Y-98129293D01*
X99798319Y-98712057D01*
X99895829Y-98809737D01*
X99691359Y-98941310D01*
X99546369Y-99153510D01*
X99495360Y-99405400D01*
X85317800Y-99405400D01*
X85317800Y-91175613D01*
X100342192Y-91175613D01*
X100411657Y-91417797D01*
X100935102Y-91604544D01*
X101490168Y-91576762D01*
X101873943Y-91417797D01*
X101943408Y-91175613D01*
X108470192Y-91175613D01*
X108539657Y-91417797D01*
X109063102Y-91604544D01*
X109618168Y-91576762D01*
X110001943Y-91417797D01*
X110071408Y-91175613D01*
X116598192Y-91175613D01*
X116667657Y-91417797D01*
X117191102Y-91604544D01*
X117746168Y-91576762D01*
X118129943Y-91417797D01*
X118199408Y-91175613D01*
X124218192Y-91175613D01*
X124287657Y-91417797D01*
X124811102Y-91604544D01*
X125366168Y-91576762D01*
X125749943Y-91417797D01*
X125819408Y-91175613D01*
X125018800Y-90375005D01*
X124218192Y-91175613D01*
X118199408Y-91175613D01*
X117398800Y-90375005D01*
X116598192Y-91175613D01*
X110071408Y-91175613D01*
X109270800Y-90375005D01*
X108470192Y-91175613D01*
X101943408Y-91175613D01*
X101142800Y-90375005D01*
X100342192Y-91175613D01*
X85317800Y-91175613D01*
X85317800Y-89987702D01*
X99733656Y-89987702D01*
X99761438Y-90542768D01*
X99920403Y-90926543D01*
X100162587Y-90996008D01*
X100963195Y-90195400D01*
X101322405Y-90195400D01*
X102123013Y-90996008D01*
X102365197Y-90926543D01*
X102551944Y-90403098D01*
X102531153Y-89987702D01*
X107861656Y-89987702D01*
X107889438Y-90542768D01*
X108048403Y-90926543D01*
X108290587Y-90996008D01*
X109091195Y-90195400D01*
X109450405Y-90195400D01*
X110251013Y-90996008D01*
X110493197Y-90926543D01*
X110679944Y-90403098D01*
X110659153Y-89987702D01*
X115989656Y-89987702D01*
X116017438Y-90542768D01*
X116176403Y-90926543D01*
X116418587Y-90996008D01*
X117219195Y-90195400D01*
X117578405Y-90195400D01*
X118379013Y-90996008D01*
X118621197Y-90926543D01*
X118807944Y-90403098D01*
X118787153Y-89987702D01*
X123609656Y-89987702D01*
X123637438Y-90542768D01*
X123796403Y-90926543D01*
X124038587Y-90996008D01*
X124839195Y-90195400D01*
X125198405Y-90195400D01*
X125999013Y-90996008D01*
X126241197Y-90926543D01*
X126427944Y-90403098D01*
X126400162Y-89848032D01*
X126241197Y-89464257D01*
X125999013Y-89394792D01*
X125198405Y-90195400D01*
X124839195Y-90195400D01*
X124038587Y-89394792D01*
X123796403Y-89464257D01*
X123609656Y-89987702D01*
X118787153Y-89987702D01*
X118780162Y-89848032D01*
X118621197Y-89464257D01*
X118379013Y-89394792D01*
X117578405Y-90195400D01*
X117219195Y-90195400D01*
X116418587Y-89394792D01*
X116176403Y-89464257D01*
X115989656Y-89987702D01*
X110659153Y-89987702D01*
X110652162Y-89848032D01*
X110493197Y-89464257D01*
X110251013Y-89394792D01*
X109450405Y-90195400D01*
X109091195Y-90195400D01*
X108290587Y-89394792D01*
X108048403Y-89464257D01*
X107861656Y-89987702D01*
X102531153Y-89987702D01*
X102524162Y-89848032D01*
X102365197Y-89464257D01*
X102123013Y-89394792D01*
X101322405Y-90195400D01*
X100963195Y-90195400D01*
X100162587Y-89394792D01*
X99920403Y-89464257D01*
X99733656Y-89987702D01*
X85317800Y-89987702D01*
X85317800Y-89215187D01*
X100342192Y-89215187D01*
X101142800Y-90015795D01*
X101943408Y-89215187D01*
X108470192Y-89215187D01*
X109270800Y-90015795D01*
X110071408Y-89215187D01*
X116598192Y-89215187D01*
X117398800Y-90015795D01*
X118199408Y-89215187D01*
X124218192Y-89215187D01*
X125018800Y-90015795D01*
X125819408Y-89215187D01*
X125749943Y-88973003D01*
X125226498Y-88786256D01*
X124671432Y-88814038D01*
X124287657Y-88973003D01*
X124218192Y-89215187D01*
X118199408Y-89215187D01*
X118129943Y-88973003D01*
X117606498Y-88786256D01*
X117051432Y-88814038D01*
X116667657Y-88973003D01*
X116598192Y-89215187D01*
X110071408Y-89215187D01*
X110001943Y-88973003D01*
X109478498Y-88786256D01*
X108923432Y-88814038D01*
X108539657Y-88973003D01*
X108470192Y-89215187D01*
X101943408Y-89215187D01*
X101873943Y-88973003D01*
X101350498Y-88786256D01*
X100795432Y-88814038D01*
X100411657Y-88973003D01*
X100342192Y-89215187D01*
X85317800Y-89215187D01*
X85317800Y-80312061D01*
X99745558Y-80312061D01*
X99957790Y-80825703D01*
X100350430Y-81219029D01*
X100863700Y-81432157D01*
X101419461Y-81432642D01*
X101933103Y-81220410D01*
X102326429Y-80827770D01*
X102539557Y-80314500D01*
X102539559Y-80312061D01*
X107873558Y-80312061D01*
X108085790Y-80825703D01*
X108478430Y-81219029D01*
X108991700Y-81432157D01*
X109547461Y-81432642D01*
X110061103Y-81220410D01*
X110454429Y-80827770D01*
X110667557Y-80314500D01*
X110667559Y-80312061D01*
X116001558Y-80312061D01*
X116213790Y-80825703D01*
X116606430Y-81219029D01*
X117119700Y-81432157D01*
X117675461Y-81432642D01*
X118189103Y-81220410D01*
X118582429Y-80827770D01*
X118795557Y-80314500D01*
X118795559Y-80312061D01*
X123621558Y-80312061D01*
X123833790Y-80825703D01*
X124226430Y-81219029D01*
X124739700Y-81432157D01*
X125295461Y-81432642D01*
X125809103Y-81220410D01*
X126202429Y-80827770D01*
X126415557Y-80314500D01*
X126416042Y-79758739D01*
X126203810Y-79245097D01*
X125811170Y-78851771D01*
X125297900Y-78638643D01*
X124742139Y-78638158D01*
X124228497Y-78850390D01*
X123835171Y-79243030D01*
X123622043Y-79756300D01*
X123621558Y-80312061D01*
X118795559Y-80312061D01*
X118796042Y-79758739D01*
X118583810Y-79245097D01*
X118191170Y-78851771D01*
X117677900Y-78638643D01*
X117122139Y-78638158D01*
X116608497Y-78850390D01*
X116215171Y-79243030D01*
X116002043Y-79756300D01*
X116001558Y-80312061D01*
X110667559Y-80312061D01*
X110668042Y-79758739D01*
X110455810Y-79245097D01*
X110063170Y-78851771D01*
X109549900Y-78638643D01*
X108994139Y-78638158D01*
X108480497Y-78850390D01*
X108087171Y-79243030D01*
X107874043Y-79756300D01*
X107873558Y-80312061D01*
X102539559Y-80312061D01*
X102540042Y-79758739D01*
X102327810Y-79245097D01*
X101935170Y-78851771D01*
X101421900Y-78638643D01*
X100866139Y-78638158D01*
X100352497Y-78850390D01*
X99959171Y-79243030D01*
X99746043Y-79756300D01*
X99745558Y-80312061D01*
X85317800Y-80312061D01*
X85317800Y-74513400D01*
X99495360Y-74513400D01*
X99495360Y-76413400D01*
X99539638Y-76648717D01*
X99678710Y-76864841D01*
X99890910Y-77009831D01*
X100142800Y-77060840D01*
X102142800Y-77060840D01*
X102378117Y-77016562D01*
X102594241Y-76877490D01*
X102739231Y-76665290D01*
X102790240Y-76413400D01*
X102790240Y-74513400D01*
X107623360Y-74513400D01*
X107623360Y-76413400D01*
X107667638Y-76648717D01*
X107806710Y-76864841D01*
X108018910Y-77009831D01*
X108270800Y-77060840D01*
X110270800Y-77060840D01*
X110506117Y-77016562D01*
X110722241Y-76877490D01*
X110867231Y-76665290D01*
X110918240Y-76413400D01*
X110918240Y-74513400D01*
X115751360Y-74513400D01*
X115751360Y-76413400D01*
X115795638Y-76648717D01*
X115934710Y-76864841D01*
X116146910Y-77009831D01*
X116398800Y-77060840D01*
X118398800Y-77060840D01*
X118634117Y-77016562D01*
X118850241Y-76877490D01*
X118995231Y-76665290D01*
X119046240Y-76413400D01*
X119046240Y-74513400D01*
X123371360Y-74513400D01*
X123371360Y-76413400D01*
X123415638Y-76648717D01*
X123554710Y-76864841D01*
X123766910Y-77009831D01*
X124018800Y-77060840D01*
X126018800Y-77060840D01*
X126254117Y-77016562D01*
X126470241Y-76877490D01*
X126615231Y-76665290D01*
X126666240Y-76413400D01*
X126666240Y-74513400D01*
X126621962Y-74278083D01*
X126482890Y-74061959D01*
X126270690Y-73916969D01*
X126267608Y-73916345D01*
X126361714Y-73822403D01*
X126603524Y-73240059D01*
X126604075Y-72609507D01*
X126363281Y-72026743D01*
X125917803Y-71580486D01*
X125335459Y-71338676D01*
X124704907Y-71338125D01*
X124122143Y-71578919D01*
X123675886Y-72024397D01*
X123434076Y-72606741D01*
X123433525Y-73237293D01*
X123674319Y-73820057D01*
X123771829Y-73917737D01*
X123567359Y-74049310D01*
X123422369Y-74261510D01*
X123371360Y-74513400D01*
X119046240Y-74513400D01*
X119001962Y-74278083D01*
X118862890Y-74061959D01*
X118650690Y-73916969D01*
X118647608Y-73916345D01*
X118741714Y-73822403D01*
X118983524Y-73240059D01*
X118984075Y-72609507D01*
X118743281Y-72026743D01*
X118297803Y-71580486D01*
X117715459Y-71338676D01*
X117084907Y-71338125D01*
X116502143Y-71578919D01*
X116055886Y-72024397D01*
X115814076Y-72606741D01*
X115813525Y-73237293D01*
X116054319Y-73820057D01*
X116151829Y-73917737D01*
X115947359Y-74049310D01*
X115802369Y-74261510D01*
X115751360Y-74513400D01*
X110918240Y-74513400D01*
X110873962Y-74278083D01*
X110734890Y-74061959D01*
X110522690Y-73916969D01*
X110519608Y-73916345D01*
X110613714Y-73822403D01*
X110855524Y-73240059D01*
X110856075Y-72609507D01*
X110615281Y-72026743D01*
X110169803Y-71580486D01*
X109587459Y-71338676D01*
X108956907Y-71338125D01*
X108374143Y-71578919D01*
X107927886Y-72024397D01*
X107686076Y-72606741D01*
X107685525Y-73237293D01*
X107926319Y-73820057D01*
X108023829Y-73917737D01*
X107819359Y-74049310D01*
X107674369Y-74261510D01*
X107623360Y-74513400D01*
X102790240Y-74513400D01*
X102745962Y-74278083D01*
X102606890Y-74061959D01*
X102394690Y-73916969D01*
X102391608Y-73916345D01*
X102485714Y-73822403D01*
X102727524Y-73240059D01*
X102728075Y-72609507D01*
X102487281Y-72026743D01*
X102041803Y-71580486D01*
X101459459Y-71338676D01*
X100828907Y-71338125D01*
X100246143Y-71578919D01*
X99799886Y-72024397D01*
X99558076Y-72606741D01*
X99557525Y-73237293D01*
X99798319Y-73820057D01*
X99895829Y-73917737D01*
X99691359Y-74049310D01*
X99546369Y-74261510D01*
X99495360Y-74513400D01*
X85317800Y-74513400D01*
X85317800Y-68730186D01*
X86014330Y-69427933D01*
X87386603Y-69997750D01*
X88872478Y-69999047D01*
X90245744Y-69431625D01*
X91297333Y-68381870D01*
X91491760Y-67913637D01*
X91491760Y-68608500D01*
X91536038Y-68843817D01*
X91675110Y-69059941D01*
X91887310Y-69204931D01*
X92139200Y-69255940D01*
X93866400Y-69255940D01*
X94101717Y-69211662D01*
X94317841Y-69072590D01*
X94462831Y-68860390D01*
X94471664Y-68816769D01*
X94483130Y-68833929D01*
X94969311Y-69158785D01*
X95542800Y-69272859D01*
X96116289Y-69158785D01*
X96602470Y-68833929D01*
X96812800Y-68519148D01*
X97023130Y-68833929D01*
X97509311Y-69158785D01*
X98082800Y-69272859D01*
X98656289Y-69158785D01*
X99142470Y-68833929D01*
X99352800Y-68519148D01*
X99563130Y-68833929D01*
X100049311Y-69158785D01*
X100622800Y-69272859D01*
X101196289Y-69158785D01*
X101682470Y-68833929D01*
X101898464Y-68510672D01*
X101955979Y-68633390D01*
X102387853Y-69027588D01*
X102803774Y-69199858D01*
X103035800Y-69078717D01*
X103035800Y-67871900D01*
X103015800Y-67871900D01*
X103015800Y-67617900D01*
X103035800Y-67617900D01*
X103035800Y-67597900D01*
X103289800Y-67597900D01*
X103289800Y-67617900D01*
G36*
X142968267Y-64144930D02*
X142689796Y-64815563D01*
X142647326Y-64602052D01*
X142322470Y-64115871D01*
X141836289Y-63791015D01*
X141262800Y-63676941D01*
X140689311Y-63791015D01*
X140203130Y-64115871D01*
X139992800Y-64430652D01*
X139782470Y-64115871D01*
X139296289Y-63791015D01*
X138722800Y-63676941D01*
X138149311Y-63791015D01*
X137663130Y-64115871D01*
X137452800Y-64430652D01*
X137242470Y-64115871D01*
X136756289Y-63791015D01*
X136182800Y-63676941D01*
X135609311Y-63791015D01*
X135123130Y-64115871D01*
X134907136Y-64439128D01*
X134849621Y-64316410D01*
X134417747Y-63922212D01*
X134001826Y-63749942D01*
X133769800Y-63871083D01*
X133769800Y-65077900D01*
X133789800Y-65077900D01*
X133789800Y-65331900D01*
X133769800Y-65331900D01*
X133769800Y-65351900D01*
X133515800Y-65351900D01*
X133515800Y-65331900D01*
X133495800Y-65331900D01*
X133495800Y-65077900D01*
X133515800Y-65077900D01*
X133515800Y-63871083D01*
X133283774Y-63749942D01*
X132867853Y-63922212D01*
X132435979Y-64316410D01*
X132378464Y-64439128D01*
X132162470Y-64115871D01*
X131676289Y-63791015D01*
X131102800Y-63676941D01*
X130529311Y-63791015D01*
X130043130Y-64115871D01*
X129827136Y-64439128D01*
X129769621Y-64316410D01*
X129337747Y-63922212D01*
X128921826Y-63749942D01*
X128689800Y-63871083D01*
X128689800Y-65077900D01*
X128709800Y-65077900D01*
X128709800Y-65331900D01*
X128689800Y-65331900D01*
X128689800Y-65351900D01*
X128435800Y-65351900D01*
X128435800Y-65331900D01*
X128415800Y-65331900D01*
X128415800Y-65077900D01*
X128435800Y-65077900D01*
X128435800Y-63871083D01*
X128203774Y-63749942D01*
X127787853Y-63922212D01*
X127355979Y-64316410D01*
X127298464Y-64439128D01*
X127082470Y-64115871D01*
X126596289Y-63791015D01*
X126022800Y-63676941D01*
X125449311Y-63791015D01*
X124963130Y-64115871D01*
X124752800Y-64430652D01*
X124542470Y-64115871D01*
X124056289Y-63791015D01*
X123482800Y-63676941D01*
X122909311Y-63791015D01*
X122423130Y-64115871D01*
X122212800Y-64430652D01*
X122002470Y-64115871D01*
X121516289Y-63791015D01*
X120942800Y-63676941D01*
X120369311Y-63791015D01*
X119883130Y-64115871D01*
X119672800Y-64430652D01*
X119462470Y-64115871D01*
X118976289Y-63791015D01*
X118402800Y-63676941D01*
X117829311Y-63791015D01*
X117343130Y-64115871D01*
X117127136Y-64439128D01*
X117069621Y-64316410D01*
X116637747Y-63922212D01*
X116221826Y-63749942D01*
X115989800Y-63871083D01*
X115989800Y-65077900D01*
X116009800Y-65077900D01*
X116009800Y-65331900D01*
X115989800Y-65331900D01*
X115989800Y-65351900D01*
X115735800Y-65351900D01*
X115735800Y-65331900D01*
X115715800Y-65331900D01*
X115715800Y-65077900D01*
X115735800Y-65077900D01*
X115735800Y-63871083D01*
X115503774Y-63749942D01*
X115087853Y-63922212D01*
X114655979Y-64316410D01*
X114598464Y-64439128D01*
X114382470Y-64115871D01*
X113896289Y-63791015D01*
X113322800Y-63676941D01*
X112749311Y-63791015D01*
X112263130Y-64115871D01*
X112052800Y-64430652D01*
X111842470Y-64115871D01*
X111356289Y-63791015D01*
X110782800Y-63676941D01*
X110209311Y-63791015D01*
X109723130Y-64115871D01*
X109507136Y-64439128D01*
X109449621Y-64316410D01*
X109017747Y-63922212D01*
X108601826Y-63749942D01*
X108369800Y-63871083D01*
X108369800Y-65077900D01*
X108389800Y-65077900D01*
X108389800Y-65331900D01*
X108369800Y-65331900D01*
X108369800Y-65351900D01*
X108115800Y-65351900D01*
X108115800Y-65331900D01*
X108095800Y-65331900D01*
X108095800Y-65077900D01*
X108115800Y-65077900D01*
X108115800Y-63871083D01*
X107883774Y-63749942D01*
X107467853Y-63922212D01*
X107035979Y-64316410D01*
X106978464Y-64439128D01*
X106762470Y-64115871D01*
X106276289Y-63791015D01*
X105702800Y-63676941D01*
X105129311Y-63791015D01*
X104643130Y-64115871D01*
X104432800Y-64430652D01*
X104222470Y-64115871D01*
X103736289Y-63791015D01*
X103162800Y-63676941D01*
X102589311Y-63791015D01*
X102103130Y-64115871D01*
X101892800Y-64430652D01*
X101682470Y-64115871D01*
X101196289Y-63791015D01*
X100622800Y-63676941D01*
X100049311Y-63791015D01*
X99563130Y-64115871D01*
X99347136Y-64439128D01*
X99289621Y-64316410D01*
X98857747Y-63922212D01*
X98441826Y-63749942D01*
X98209800Y-63871083D01*
X98209800Y-65077900D01*
X98229800Y-65077900D01*
X98229800Y-65331900D01*
X98209800Y-65331900D01*
X98209800Y-65351900D01*
X97955800Y-65351900D01*
X97955800Y-65331900D01*
X97935800Y-65331900D01*
X97935800Y-65077900D01*
X97955800Y-65077900D01*
X97955800Y-63871083D01*
X97723774Y-63749942D01*
X97307853Y-63922212D01*
X96875979Y-64316410D01*
X96818464Y-64439128D01*
X96602470Y-64115871D01*
X96116289Y-63791015D01*
X95542800Y-63676941D01*
X94969311Y-63791015D01*
X94483130Y-64115871D01*
X94272800Y-64430652D01*
X94062470Y-64115871D01*
X93576289Y-63791015D01*
X93002800Y-63676941D01*
X92429311Y-63791015D01*
X91943130Y-64115871D01*
X91618274Y-64602052D01*
X91575816Y-64815502D01*
X91301025Y-64150456D01*
X90600193Y-63448400D01*
X143666014Y-63448400D01*
X142968267Y-64144930D01*
X142968267Y-64144930D01*
G37*
X142968267Y-64144930D02*
X142689796Y-64815563D01*
X142647326Y-64602052D01*
X142322470Y-64115871D01*
X141836289Y-63791015D01*
X141262800Y-63676941D01*
X140689311Y-63791015D01*
X140203130Y-64115871D01*
X139992800Y-64430652D01*
X139782470Y-64115871D01*
X139296289Y-63791015D01*
X138722800Y-63676941D01*
X138149311Y-63791015D01*
X137663130Y-64115871D01*
X137452800Y-64430652D01*
X137242470Y-64115871D01*
X136756289Y-63791015D01*
X136182800Y-63676941D01*
X135609311Y-63791015D01*
X135123130Y-64115871D01*
X134907136Y-64439128D01*
X134849621Y-64316410D01*
X134417747Y-63922212D01*
X134001826Y-63749942D01*
X133769800Y-63871083D01*
X133769800Y-65077900D01*
X133789800Y-65077900D01*
X133789800Y-65331900D01*
X133769800Y-65331900D01*
X133769800Y-65351900D01*
X133515800Y-65351900D01*
X133515800Y-65331900D01*
X133495800Y-65331900D01*
X133495800Y-65077900D01*
X133515800Y-65077900D01*
X133515800Y-63871083D01*
X133283774Y-63749942D01*
X132867853Y-63922212D01*
X132435979Y-64316410D01*
X132378464Y-64439128D01*
X132162470Y-64115871D01*
X131676289Y-63791015D01*
X131102800Y-63676941D01*
X130529311Y-63791015D01*
X130043130Y-64115871D01*
X129827136Y-64439128D01*
X129769621Y-64316410D01*
X129337747Y-63922212D01*
X128921826Y-63749942D01*
X128689800Y-63871083D01*
X128689800Y-65077900D01*
X128709800Y-65077900D01*
X128709800Y-65331900D01*
X128689800Y-65331900D01*
X128689800Y-65351900D01*
X128435800Y-65351900D01*
X128435800Y-65331900D01*
X128415800Y-65331900D01*
X128415800Y-65077900D01*
X128435800Y-65077900D01*
X128435800Y-63871083D01*
X128203774Y-63749942D01*
X127787853Y-63922212D01*
X127355979Y-64316410D01*
X127298464Y-64439128D01*
X127082470Y-64115871D01*
X126596289Y-63791015D01*
X126022800Y-63676941D01*
X125449311Y-63791015D01*
X124963130Y-64115871D01*
X124752800Y-64430652D01*
X124542470Y-64115871D01*
X124056289Y-63791015D01*
X123482800Y-63676941D01*
X122909311Y-63791015D01*
X122423130Y-64115871D01*
X122212800Y-64430652D01*
X122002470Y-64115871D01*
X121516289Y-63791015D01*
X120942800Y-63676941D01*
X120369311Y-63791015D01*
X119883130Y-64115871D01*
X119672800Y-64430652D01*
X119462470Y-64115871D01*
X118976289Y-63791015D01*
X118402800Y-63676941D01*
X117829311Y-63791015D01*
X117343130Y-64115871D01*
X117127136Y-64439128D01*
X117069621Y-64316410D01*
X116637747Y-63922212D01*
X116221826Y-63749942D01*
X115989800Y-63871083D01*
X115989800Y-65077900D01*
X116009800Y-65077900D01*
X116009800Y-65331900D01*
X115989800Y-65331900D01*
X115989800Y-65351900D01*
X115735800Y-65351900D01*
X115735800Y-65331900D01*
X115715800Y-65331900D01*
X115715800Y-65077900D01*
X115735800Y-65077900D01*
X115735800Y-63871083D01*
X115503774Y-63749942D01*
X115087853Y-63922212D01*
X114655979Y-64316410D01*
X114598464Y-64439128D01*
X114382470Y-64115871D01*
X113896289Y-63791015D01*
X113322800Y-63676941D01*
X112749311Y-63791015D01*
X112263130Y-64115871D01*
X112052800Y-64430652D01*
X111842470Y-64115871D01*
X111356289Y-63791015D01*
X110782800Y-63676941D01*
X110209311Y-63791015D01*
X109723130Y-64115871D01*
X109507136Y-64439128D01*
X109449621Y-64316410D01*
X109017747Y-63922212D01*
X108601826Y-63749942D01*
X108369800Y-63871083D01*
X108369800Y-65077900D01*
X108389800Y-65077900D01*
X108389800Y-65331900D01*
X108369800Y-65331900D01*
X108369800Y-65351900D01*
X108115800Y-65351900D01*
X108115800Y-65331900D01*
X108095800Y-65331900D01*
X108095800Y-65077900D01*
X108115800Y-65077900D01*
X108115800Y-63871083D01*
X107883774Y-63749942D01*
X107467853Y-63922212D01*
X107035979Y-64316410D01*
X106978464Y-64439128D01*
X106762470Y-64115871D01*
X106276289Y-63791015D01*
X105702800Y-63676941D01*
X105129311Y-63791015D01*
X104643130Y-64115871D01*
X104432800Y-64430652D01*
X104222470Y-64115871D01*
X103736289Y-63791015D01*
X103162800Y-63676941D01*
X102589311Y-63791015D01*
X102103130Y-64115871D01*
X101892800Y-64430652D01*
X101682470Y-64115871D01*
X101196289Y-63791015D01*
X100622800Y-63676941D01*
X100049311Y-63791015D01*
X99563130Y-64115871D01*
X99347136Y-64439128D01*
X99289621Y-64316410D01*
X98857747Y-63922212D01*
X98441826Y-63749942D01*
X98209800Y-63871083D01*
X98209800Y-65077900D01*
X98229800Y-65077900D01*
X98229800Y-65331900D01*
X98209800Y-65331900D01*
X98209800Y-65351900D01*
X97955800Y-65351900D01*
X97955800Y-65331900D01*
X97935800Y-65331900D01*
X97935800Y-65077900D01*
X97955800Y-65077900D01*
X97955800Y-63871083D01*
X97723774Y-63749942D01*
X97307853Y-63922212D01*
X96875979Y-64316410D01*
X96818464Y-64439128D01*
X96602470Y-64115871D01*
X96116289Y-63791015D01*
X95542800Y-63676941D01*
X94969311Y-63791015D01*
X94483130Y-64115871D01*
X94272800Y-64430652D01*
X94062470Y-64115871D01*
X93576289Y-63791015D01*
X93002800Y-63676941D01*
X92429311Y-63791015D01*
X91943130Y-64115871D01*
X91618274Y-64602052D01*
X91575816Y-64815502D01*
X91301025Y-64150456D01*
X90600193Y-63448400D01*
X143666014Y-63448400D01*
X142968267Y-64144930D01*
M02*
