M48
;DRILL file {KiCad 4.0.2-stable} date 20/7/2016 18:22:52
;FORMAT={-:-/ absolute / metric / decimal}
FMAT,2
METRIC,TZ
T1C0.400
T2C0.813
T3C1.001
T4C1.016
T5C2.750
%
G90
G05
M71
T1
X127.696Y-70.107
T2
X101.143Y-80.035
X101.143Y-90.195
X101.143Y-105.435
X101.143Y-115.595
X109.271Y-80.035
X109.271Y-90.195
X109.271Y-105.435
X109.271Y-115.595
X117.399Y-80.035
X117.399Y-90.195
X117.399Y-105.435
X117.399Y-115.595
X124.511Y-105.435
X124.511Y-115.595
X125.019Y-80.035
X125.019Y-90.195
T3
X101.143Y-72.923
X101.143Y-75.463
X101.143Y-97.815
X101.143Y-100.355
X109.271Y-72.923
X109.271Y-75.463
X109.271Y-97.815
X109.271Y-100.355
X117.399Y-72.923
X117.399Y-75.463
X117.399Y-97.815
X117.399Y-100.355
X124.511Y-97.815
X124.511Y-100.355
X125.019Y-72.923
X125.019Y-75.463
T4
X93.003Y-65.205
X93.003Y-67.745
X95.543Y-65.205
X95.543Y-67.745
X98.083Y-65.205
X98.083Y-67.745
X100.623Y-65.205
X100.623Y-67.745
X103.163Y-65.205
X103.163Y-67.745
X105.703Y-65.205
X105.703Y-67.745
X108.243Y-65.205
X108.243Y-67.745
X110.783Y-65.205
X110.783Y-67.745
X113.323Y-65.205
X113.323Y-67.745
X115.863Y-65.205
X115.863Y-67.745
X118.303Y-67.745
X118.403Y-65.205
X120.943Y-65.205
X120.943Y-67.745
X123.483Y-65.205
X123.483Y-67.745
X126.023Y-65.205
X126.023Y-67.745
X128.563Y-65.205
X128.563Y-67.745
X131.103Y-65.205
X131.103Y-67.745
X133.643Y-65.205
X133.643Y-67.745
X136.183Y-65.205
X136.183Y-67.745
X138.723Y-65.205
X138.723Y-67.745
X141.263Y-65.205
X141.263Y-67.745
T5
X88.133Y-66.263
X88.133Y-115.763
X146.133Y-66.263
X146.133Y-115.763
T0
M30
