%FSLAX45Y45*%
G04 Gerber Fmt 4.5, Leading zero omitted, Abs format (unit mm)*
G04 Created by KiCad (PCBNEW 4.0.2-stable) date 20/7/2016 20:46:05*
%MOMM*%
G01*
G04 APERTURE LIST*
%ADD10C,0.127000*%
%ADD11C,0.100000*%
%ADD12C,0.200000*%
%ADD13C,0.300000*%
G04 APERTURE END LIST*
D10*
D11*
X8763280Y-6276340D02*
G75*
G03X8463280Y-6576340I0J-300000D01*
G01*
X8463280Y-11626340D02*
G75*
G03X8763280Y-11926340I300000J0D01*
G01*
X14663280Y-11926340D02*
G75*
G03X14963280Y-11626340I0J300000D01*
G01*
X14963280Y-6576340D02*
G75*
G03X14663280Y-6276340I-300000J0D01*
G01*
X8463280Y-11626340D02*
X8463280Y-6576340D01*
X8763280Y-11926340D02*
X14663280Y-11926340D01*
X14963280Y-6576340D02*
X14963280Y-11626340D01*
X8763280Y-6276340D02*
X14663280Y-6276340D01*
D12*
X12749596Y-6990654D02*
X12789596Y-7030654D01*
X12789596Y-6990654D02*
X12749596Y-7030654D01*
X10154920Y-8003540D02*
G75*
G03X10154920Y-8003540I-40640J0D01*
G01*
X10154920Y-9019540D02*
G75*
G03X10154920Y-9019540I-40640J0D01*
G01*
X10154920Y-10543540D02*
G75*
G03X10154920Y-10543540I-40640J0D01*
G01*
X10154920Y-11559540D02*
G75*
G03X10154920Y-11559540I-40640J0D01*
G01*
X10967720Y-8003540D02*
G75*
G03X10967720Y-8003540I-40640J0D01*
G01*
X10967720Y-9019540D02*
G75*
G03X10967720Y-9019540I-40640J0D01*
G01*
X10967720Y-10543540D02*
G75*
G03X10967720Y-10543540I-40640J0D01*
G01*
X10967720Y-11559540D02*
G75*
G03X10967720Y-11559540I-40640J0D01*
G01*
X11780520Y-8003540D02*
G75*
G03X11780520Y-8003540I-40640J0D01*
G01*
X11780520Y-9019540D02*
G75*
G03X11780520Y-9019540I-40640J0D01*
G01*
X11780520Y-10543540D02*
G75*
G03X11780520Y-10543540I-40640J0D01*
G01*
X11780520Y-11559540D02*
G75*
G03X11780520Y-11559540I-40640J0D01*
G01*
X12491720Y-10543540D02*
G75*
G03X12491720Y-10543540I-40640J0D01*
G01*
X12491720Y-11559540D02*
G75*
G03X12491720Y-11559540I-40640J0D01*
G01*
X12542520Y-8003540D02*
G75*
G03X12542520Y-8003540I-40640J0D01*
G01*
X12542520Y-9019540D02*
G75*
G03X12542520Y-9019540I-40640J0D01*
G01*
X10114280Y-7242302D02*
X10114280Y-7342378D01*
X10064242Y-7292340D02*
X10164318Y-7292340D01*
X10114280Y-7496302D02*
X10114280Y-7596378D01*
X10064242Y-7546340D02*
X10164318Y-7546340D01*
X10114280Y-9731502D02*
X10114280Y-9831578D01*
X10064242Y-9781540D02*
X10164318Y-9781540D01*
X10114280Y-9985502D02*
X10114280Y-10085578D01*
X10064242Y-10035540D02*
X10164318Y-10035540D01*
X10927080Y-7242302D02*
X10927080Y-7342378D01*
X10877042Y-7292340D02*
X10977118Y-7292340D01*
X10927080Y-7496302D02*
X10927080Y-7596378D01*
X10877042Y-7546340D02*
X10977118Y-7546340D01*
X10927080Y-9731502D02*
X10927080Y-9831578D01*
X10877042Y-9781540D02*
X10977118Y-9781540D01*
X10927080Y-9985502D02*
X10927080Y-10085578D01*
X10877042Y-10035540D02*
X10977118Y-10035540D01*
X11739880Y-7242302D02*
X11739880Y-7342378D01*
X11689842Y-7292340D02*
X11789918Y-7292340D01*
X11739880Y-7496302D02*
X11739880Y-7596378D01*
X11689842Y-7546340D02*
X11789918Y-7546340D01*
X11739880Y-9731502D02*
X11739880Y-9831578D01*
X11689842Y-9781540D02*
X11789918Y-9781540D01*
X11739880Y-9985502D02*
X11739880Y-10085578D01*
X11689842Y-10035540D02*
X11789918Y-10035540D01*
X12451080Y-9731502D02*
X12451080Y-9831578D01*
X12401042Y-9781540D02*
X12501118Y-9781540D01*
X12451080Y-9985502D02*
X12451080Y-10085578D01*
X12401042Y-10035540D02*
X12501118Y-10035540D01*
X12501880Y-7242302D02*
X12501880Y-7342378D01*
X12451842Y-7292340D02*
X12551918Y-7292340D01*
X12501880Y-7496302D02*
X12501880Y-7596378D01*
X12451842Y-7546340D02*
X12551918Y-7546340D01*
X9336201Y-6556411D02*
X9336201Y-6484569D01*
X9264359Y-6484569D01*
X9264359Y-6556411D01*
X9336201Y-6556411D01*
X9336201Y-6810411D02*
X9336201Y-6738569D01*
X9264359Y-6738569D01*
X9264359Y-6810411D01*
X9336201Y-6810411D01*
X9590201Y-6556411D02*
X9590201Y-6484569D01*
X9518359Y-6484569D01*
X9518359Y-6556411D01*
X9590201Y-6556411D01*
X9590201Y-6810411D02*
X9590201Y-6738569D01*
X9518359Y-6738569D01*
X9518359Y-6810411D01*
X9590201Y-6810411D01*
X9844201Y-6556411D02*
X9844201Y-6484569D01*
X9772359Y-6484569D01*
X9772359Y-6556411D01*
X9844201Y-6556411D01*
X9844201Y-6810411D02*
X9844201Y-6738569D01*
X9772359Y-6738569D01*
X9772359Y-6810411D01*
X9844201Y-6810411D01*
X10098201Y-6556411D02*
X10098201Y-6484569D01*
X10026359Y-6484569D01*
X10026359Y-6556411D01*
X10098201Y-6556411D01*
X10098201Y-6810411D02*
X10098201Y-6738569D01*
X10026359Y-6738569D01*
X10026359Y-6810411D01*
X10098201Y-6810411D01*
X10352201Y-6556411D02*
X10352201Y-6484569D01*
X10280359Y-6484569D01*
X10280359Y-6556411D01*
X10352201Y-6556411D01*
X10352201Y-6810411D02*
X10352201Y-6738569D01*
X10280359Y-6738569D01*
X10280359Y-6810411D01*
X10352201Y-6810411D01*
X10606201Y-6556411D02*
X10606201Y-6484569D01*
X10534359Y-6484569D01*
X10534359Y-6556411D01*
X10606201Y-6556411D01*
X10606201Y-6810411D02*
X10606201Y-6738569D01*
X10534359Y-6738569D01*
X10534359Y-6810411D01*
X10606201Y-6810411D01*
X10860201Y-6556411D02*
X10860201Y-6484569D01*
X10788359Y-6484569D01*
X10788359Y-6556411D01*
X10860201Y-6556411D01*
X10860201Y-6810411D02*
X10860201Y-6738569D01*
X10788359Y-6738569D01*
X10788359Y-6810411D01*
X10860201Y-6810411D01*
X11114201Y-6556411D02*
X11114201Y-6484569D01*
X11042359Y-6484569D01*
X11042359Y-6556411D01*
X11114201Y-6556411D01*
X11114201Y-6810411D02*
X11114201Y-6738569D01*
X11042359Y-6738569D01*
X11042359Y-6810411D01*
X11114201Y-6810411D01*
X11368201Y-6556411D02*
X11368201Y-6484569D01*
X11296359Y-6484569D01*
X11296359Y-6556411D01*
X11368201Y-6556411D01*
X11368201Y-6810411D02*
X11368201Y-6738569D01*
X11296359Y-6738569D01*
X11296359Y-6810411D01*
X11368201Y-6810411D01*
X11622201Y-6556411D02*
X11622201Y-6484569D01*
X11550359Y-6484569D01*
X11550359Y-6556411D01*
X11622201Y-6556411D01*
X11622201Y-6810411D02*
X11622201Y-6738569D01*
X11550359Y-6738569D01*
X11550359Y-6810411D01*
X11622201Y-6810411D01*
X11866201Y-6810411D02*
X11866201Y-6738569D01*
X11794359Y-6738569D01*
X11794359Y-6810411D01*
X11866201Y-6810411D01*
X11876201Y-6556411D02*
X11876201Y-6484569D01*
X11804359Y-6484569D01*
X11804359Y-6556411D01*
X11876201Y-6556411D01*
X12130201Y-6556411D02*
X12130201Y-6484569D01*
X12058359Y-6484569D01*
X12058359Y-6556411D01*
X12130201Y-6556411D01*
X12130201Y-6810411D02*
X12130201Y-6738569D01*
X12058359Y-6738569D01*
X12058359Y-6810411D01*
X12130201Y-6810411D01*
X12384201Y-6556411D02*
X12384201Y-6484569D01*
X12312359Y-6484569D01*
X12312359Y-6556411D01*
X12384201Y-6556411D01*
X12384201Y-6810411D02*
X12384201Y-6738569D01*
X12312359Y-6738569D01*
X12312359Y-6810411D01*
X12384201Y-6810411D01*
X12638201Y-6556411D02*
X12638201Y-6484569D01*
X12566359Y-6484569D01*
X12566359Y-6556411D01*
X12638201Y-6556411D01*
X12638201Y-6810411D02*
X12638201Y-6738569D01*
X12566359Y-6738569D01*
X12566359Y-6810411D01*
X12638201Y-6810411D01*
X12892201Y-6556411D02*
X12892201Y-6484569D01*
X12820359Y-6484569D01*
X12820359Y-6556411D01*
X12892201Y-6556411D01*
X12892201Y-6810411D02*
X12892201Y-6738569D01*
X12820359Y-6738569D01*
X12820359Y-6810411D01*
X12892201Y-6810411D01*
X13146201Y-6556411D02*
X13146201Y-6484569D01*
X13074359Y-6484569D01*
X13074359Y-6556411D01*
X13146201Y-6556411D01*
X13146201Y-6810411D02*
X13146201Y-6738569D01*
X13074359Y-6738569D01*
X13074359Y-6810411D01*
X13146201Y-6810411D01*
X13400201Y-6556411D02*
X13400201Y-6484569D01*
X13328359Y-6484569D01*
X13328359Y-6556411D01*
X13400201Y-6556411D01*
X13400201Y-6810411D02*
X13400201Y-6738569D01*
X13328359Y-6738569D01*
X13328359Y-6810411D01*
X13400201Y-6810411D01*
X13654201Y-6556411D02*
X13654201Y-6484569D01*
X13582359Y-6484569D01*
X13582359Y-6556411D01*
X13654201Y-6556411D01*
X13654201Y-6810411D02*
X13654201Y-6738569D01*
X13582359Y-6738569D01*
X13582359Y-6810411D01*
X13654201Y-6810411D01*
X13908201Y-6556411D02*
X13908201Y-6484569D01*
X13836359Y-6484569D01*
X13836359Y-6556411D01*
X13908201Y-6556411D01*
X13908201Y-6810411D02*
X13908201Y-6738569D01*
X13836359Y-6738569D01*
X13836359Y-6810411D01*
X13908201Y-6810411D01*
X14162201Y-6556411D02*
X14162201Y-6484569D01*
X14090359Y-6484569D01*
X14090359Y-6556411D01*
X14162201Y-6556411D01*
X14162201Y-6810411D02*
X14162201Y-6738569D01*
X14090359Y-6738569D01*
X14090359Y-6810411D01*
X14162201Y-6810411D01*
X8813280Y-6763840D02*
X8950780Y-6626340D01*
X8813280Y-6488840D01*
X8675780Y-6626340D01*
X8813280Y-6763840D01*
X8813280Y-11713840D02*
X8950780Y-11576340D01*
X8813280Y-11438840D01*
X8675780Y-11576340D01*
X8813280Y-11713840D01*
X14613280Y-6763840D02*
X14750780Y-6626340D01*
X14613280Y-6488840D01*
X14475780Y-6626340D01*
X14613280Y-6763840D01*
X14613280Y-11713840D02*
X14750780Y-11576340D01*
X14613280Y-11438840D01*
X14475780Y-11576340D01*
X14613280Y-11713840D01*
D13*
X8729709Y-12397054D02*
X8729709Y-12097054D01*
X8801137Y-12097054D01*
X8843994Y-12111340D01*
X8872566Y-12139911D01*
X8886851Y-12168483D01*
X8901137Y-12225626D01*
X8901137Y-12268483D01*
X8886851Y-12325626D01*
X8872566Y-12354197D01*
X8843994Y-12382769D01*
X8801137Y-12397054D01*
X8729709Y-12397054D01*
X9029709Y-12397054D02*
X9029709Y-12197054D01*
X9029709Y-12254197D02*
X9043994Y-12225626D01*
X9058280Y-12211340D01*
X9086851Y-12197054D01*
X9115423Y-12197054D01*
X9215423Y-12397054D02*
X9215423Y-12197054D01*
X9215423Y-12097054D02*
X9201137Y-12111340D01*
X9215423Y-12125626D01*
X9229709Y-12111340D01*
X9215423Y-12097054D01*
X9215423Y-12125626D01*
X9401137Y-12397054D02*
X9372566Y-12382769D01*
X9358280Y-12354197D01*
X9358280Y-12097054D01*
X9558280Y-12397054D02*
X9529709Y-12382769D01*
X9515423Y-12354197D01*
X9515423Y-12097054D01*
X9901137Y-12397054D02*
X9901137Y-12097054D01*
X10001137Y-12311340D01*
X10101137Y-12097054D01*
X10101137Y-12397054D01*
X10372566Y-12397054D02*
X10372566Y-12239911D01*
X10358280Y-12211340D01*
X10329709Y-12197054D01*
X10272566Y-12197054D01*
X10243994Y-12211340D01*
X10372566Y-12382769D02*
X10343994Y-12397054D01*
X10272566Y-12397054D01*
X10243994Y-12382769D01*
X10229709Y-12354197D01*
X10229709Y-12325626D01*
X10243994Y-12297054D01*
X10272566Y-12282769D01*
X10343994Y-12282769D01*
X10372566Y-12268483D01*
X10515423Y-12197054D02*
X10515423Y-12497054D01*
X10515423Y-12211340D02*
X10543994Y-12197054D01*
X10601137Y-12197054D01*
X10629709Y-12211340D01*
X10643994Y-12225626D01*
X10658280Y-12254197D01*
X10658280Y-12339911D01*
X10643994Y-12368483D01*
X10629709Y-12382769D01*
X10601137Y-12397054D01*
X10543994Y-12397054D01*
X10515423Y-12382769D01*
X10786851Y-12368483D02*
X10801137Y-12382769D01*
X10786851Y-12397054D01*
X10772566Y-12382769D01*
X10786851Y-12368483D01*
X10786851Y-12397054D01*
X10786851Y-12211340D02*
X10801137Y-12225626D01*
X10786851Y-12239911D01*
X10772566Y-12225626D01*
X10786851Y-12211340D01*
X10786851Y-12239911D01*
X8418280Y-12871340D02*
X8458280Y-12911340D01*
X8458280Y-12871340D02*
X8418280Y-12911340D01*
X8786851Y-12727054D02*
X8815423Y-12727054D01*
X8843994Y-12741340D01*
X8858280Y-12755626D01*
X8872566Y-12784197D01*
X8886851Y-12841340D01*
X8886851Y-12912769D01*
X8872566Y-12969911D01*
X8858280Y-12998483D01*
X8843994Y-13012769D01*
X8815423Y-13027054D01*
X8786851Y-13027054D01*
X8758280Y-13012769D01*
X8743994Y-12998483D01*
X8729709Y-12969911D01*
X8715423Y-12912769D01*
X8715423Y-12841340D01*
X8729709Y-12784197D01*
X8743994Y-12755626D01*
X8758280Y-12741340D01*
X8786851Y-12727054D01*
X9015423Y-12998483D02*
X9029709Y-13012769D01*
X9015423Y-13027054D01*
X9001137Y-13012769D01*
X9015423Y-12998483D01*
X9015423Y-13027054D01*
X9286851Y-12827054D02*
X9286851Y-13027054D01*
X9215423Y-12712769D02*
X9143994Y-12927054D01*
X9329708Y-12927054D01*
X9501137Y-12727054D02*
X9529709Y-12727054D01*
X9558280Y-12741340D01*
X9572566Y-12755626D01*
X9586851Y-12784197D01*
X9601137Y-12841340D01*
X9601137Y-12912769D01*
X9586851Y-12969911D01*
X9572566Y-12998483D01*
X9558280Y-13012769D01*
X9529709Y-13027054D01*
X9501137Y-13027054D01*
X9472566Y-13012769D01*
X9458280Y-12998483D01*
X9443994Y-12969911D01*
X9429709Y-12912769D01*
X9429709Y-12841340D01*
X9443994Y-12784197D01*
X9458280Y-12755626D01*
X9472566Y-12741340D01*
X9501137Y-12727054D01*
X9729709Y-13027054D02*
X9729709Y-12827054D01*
X9729709Y-12855626D02*
X9743994Y-12841340D01*
X9772566Y-12827054D01*
X9815423Y-12827054D01*
X9843994Y-12841340D01*
X9858280Y-12869911D01*
X9858280Y-13027054D01*
X9858280Y-12869911D02*
X9872566Y-12841340D01*
X9901137Y-12827054D01*
X9943994Y-12827054D01*
X9972566Y-12841340D01*
X9986851Y-12869911D01*
X9986851Y-13027054D01*
X10129709Y-13027054D02*
X10129709Y-12827054D01*
X10129709Y-12855626D02*
X10143994Y-12841340D01*
X10172566Y-12827054D01*
X10215423Y-12827054D01*
X10243994Y-12841340D01*
X10258280Y-12869911D01*
X10258280Y-13027054D01*
X10258280Y-12869911D02*
X10272566Y-12841340D01*
X10301137Y-12827054D01*
X10343994Y-12827054D01*
X10372566Y-12841340D01*
X10386851Y-12869911D01*
X10386851Y-13027054D01*
X10972566Y-12712769D02*
X10715423Y-13098483D01*
X11358280Y-12727054D02*
X11386851Y-12727054D01*
X11415423Y-12741340D01*
X11429708Y-12755626D01*
X11443994Y-12784197D01*
X11458280Y-12841340D01*
X11458280Y-12912769D01*
X11443994Y-12969911D01*
X11429708Y-12998483D01*
X11415423Y-13012769D01*
X11386851Y-13027054D01*
X11358280Y-13027054D01*
X11329708Y-13012769D01*
X11315423Y-12998483D01*
X11301137Y-12969911D01*
X11286851Y-12912769D01*
X11286851Y-12841340D01*
X11301137Y-12784197D01*
X11315423Y-12755626D01*
X11329708Y-12741340D01*
X11358280Y-12727054D01*
X11586851Y-12998483D02*
X11601137Y-13012769D01*
X11586851Y-13027054D01*
X11572566Y-13012769D01*
X11586851Y-12998483D01*
X11586851Y-13027054D01*
X11786851Y-12727054D02*
X11815423Y-12727054D01*
X11843994Y-12741340D01*
X11858280Y-12755626D01*
X11872565Y-12784197D01*
X11886851Y-12841340D01*
X11886851Y-12912769D01*
X11872565Y-12969911D01*
X11858280Y-12998483D01*
X11843994Y-13012769D01*
X11815423Y-13027054D01*
X11786851Y-13027054D01*
X11758280Y-13012769D01*
X11743994Y-12998483D01*
X11729708Y-12969911D01*
X11715423Y-12912769D01*
X11715423Y-12841340D01*
X11729708Y-12784197D01*
X11743994Y-12755626D01*
X11758280Y-12741340D01*
X11786851Y-12727054D01*
X12172565Y-13027054D02*
X12001137Y-13027054D01*
X12086851Y-13027054D02*
X12086851Y-12727054D01*
X12058280Y-12769911D01*
X12029708Y-12798483D01*
X12001137Y-12812769D01*
X12429708Y-12727054D02*
X12372565Y-12727054D01*
X12343994Y-12741340D01*
X12329708Y-12755626D01*
X12301137Y-12798483D01*
X12286851Y-12855626D01*
X12286851Y-12969911D01*
X12301137Y-12998483D01*
X12315423Y-13012769D01*
X12343994Y-13027054D01*
X12401137Y-13027054D01*
X12429708Y-13012769D01*
X12443994Y-12998483D01*
X12458280Y-12969911D01*
X12458280Y-12898483D01*
X12443994Y-12869911D01*
X12429708Y-12855626D01*
X12401137Y-12841340D01*
X12343994Y-12841340D01*
X12315423Y-12855626D01*
X12301137Y-12869911D01*
X12286851Y-12898483D01*
X12572566Y-12727054D02*
X12572566Y-12784197D01*
X12686851Y-12727054D02*
X12686851Y-12784197D01*
X13129708Y-13141340D02*
X13115423Y-13127054D01*
X13086851Y-13084197D01*
X13072565Y-13055626D01*
X13058280Y-13012769D01*
X13043994Y-12941340D01*
X13043994Y-12884197D01*
X13058280Y-12812769D01*
X13072565Y-12769911D01*
X13086851Y-12741340D01*
X13115423Y-12698483D01*
X13129708Y-12684197D01*
X13401137Y-13027054D02*
X13229708Y-13027054D01*
X13315423Y-13027054D02*
X13315423Y-12727054D01*
X13286851Y-12769911D01*
X13258280Y-12798483D01*
X13229708Y-12812769D01*
X13758280Y-13027054D02*
X13758280Y-12727054D01*
X13886851Y-13027054D02*
X13886851Y-12869911D01*
X13872565Y-12841340D01*
X13843994Y-12827054D01*
X13801137Y-12827054D01*
X13772565Y-12841340D01*
X13758280Y-12855626D01*
X14072565Y-13027054D02*
X14043994Y-13012769D01*
X14029708Y-12998483D01*
X14015423Y-12969911D01*
X14015423Y-12884197D01*
X14029708Y-12855626D01*
X14043994Y-12841340D01*
X14072565Y-12827054D01*
X14115423Y-12827054D01*
X14143994Y-12841340D01*
X14158280Y-12855626D01*
X14172565Y-12884197D01*
X14172565Y-12969911D01*
X14158280Y-12998483D01*
X14143994Y-13012769D01*
X14115423Y-13027054D01*
X14072565Y-13027054D01*
X14343994Y-13027054D02*
X14315423Y-13012769D01*
X14301137Y-12984197D01*
X14301137Y-12727054D01*
X14572566Y-13012769D02*
X14543994Y-13027054D01*
X14486851Y-13027054D01*
X14458280Y-13012769D01*
X14443994Y-12984197D01*
X14443994Y-12869911D01*
X14458280Y-12841340D01*
X14486851Y-12827054D01*
X14543994Y-12827054D01*
X14572566Y-12841340D01*
X14586851Y-12869911D01*
X14586851Y-12898483D01*
X14443994Y-12927054D01*
X14686851Y-13141340D02*
X14701137Y-13127054D01*
X14729708Y-13084197D01*
X14743994Y-13055626D01*
X14758280Y-13012769D01*
X14772566Y-12941340D01*
X14772566Y-12884197D01*
X14758280Y-12812769D01*
X14743994Y-12769911D01*
X14729708Y-12741340D01*
X14701137Y-12698483D01*
X14686851Y-12684197D01*
X8458280Y-13287340D02*
G75*
G03X8458280Y-13287340I-40640J0D01*
G01*
X8786851Y-13123054D02*
X8815423Y-13123054D01*
X8843994Y-13137340D01*
X8858280Y-13151626D01*
X8872566Y-13180197D01*
X8886851Y-13237340D01*
X8886851Y-13308769D01*
X8872566Y-13365911D01*
X8858280Y-13394483D01*
X8843994Y-13408769D01*
X8815423Y-13423054D01*
X8786851Y-13423054D01*
X8758280Y-13408769D01*
X8743994Y-13394483D01*
X8729709Y-13365911D01*
X8715423Y-13308769D01*
X8715423Y-13237340D01*
X8729709Y-13180197D01*
X8743994Y-13151626D01*
X8758280Y-13137340D01*
X8786851Y-13123054D01*
X9015423Y-13394483D02*
X9029709Y-13408769D01*
X9015423Y-13423054D01*
X9001137Y-13408769D01*
X9015423Y-13394483D01*
X9015423Y-13423054D01*
X9201137Y-13251626D02*
X9172566Y-13237340D01*
X9158280Y-13223054D01*
X9143994Y-13194483D01*
X9143994Y-13180197D01*
X9158280Y-13151626D01*
X9172566Y-13137340D01*
X9201137Y-13123054D01*
X9258280Y-13123054D01*
X9286851Y-13137340D01*
X9301137Y-13151626D01*
X9315423Y-13180197D01*
X9315423Y-13194483D01*
X9301137Y-13223054D01*
X9286851Y-13237340D01*
X9258280Y-13251626D01*
X9201137Y-13251626D01*
X9172566Y-13265911D01*
X9158280Y-13280197D01*
X9143994Y-13308769D01*
X9143994Y-13365911D01*
X9158280Y-13394483D01*
X9172566Y-13408769D01*
X9201137Y-13423054D01*
X9258280Y-13423054D01*
X9286851Y-13408769D01*
X9301137Y-13394483D01*
X9315423Y-13365911D01*
X9315423Y-13308769D01*
X9301137Y-13280197D01*
X9286851Y-13265911D01*
X9258280Y-13251626D01*
X9601137Y-13423054D02*
X9429709Y-13423054D01*
X9515423Y-13423054D02*
X9515423Y-13123054D01*
X9486851Y-13165911D01*
X9458280Y-13194483D01*
X9429709Y-13208769D01*
X9729709Y-13423054D02*
X9729709Y-13223054D01*
X9729709Y-13251626D02*
X9743994Y-13237340D01*
X9772566Y-13223054D01*
X9815423Y-13223054D01*
X9843994Y-13237340D01*
X9858280Y-13265911D01*
X9858280Y-13423054D01*
X9858280Y-13265911D02*
X9872566Y-13237340D01*
X9901137Y-13223054D01*
X9943994Y-13223054D01*
X9972566Y-13237340D01*
X9986851Y-13265911D01*
X9986851Y-13423054D01*
X10129709Y-13423054D02*
X10129709Y-13223054D01*
X10129709Y-13251626D02*
X10143994Y-13237340D01*
X10172566Y-13223054D01*
X10215423Y-13223054D01*
X10243994Y-13237340D01*
X10258280Y-13265911D01*
X10258280Y-13423054D01*
X10258280Y-13265911D02*
X10272566Y-13237340D01*
X10301137Y-13223054D01*
X10343994Y-13223054D01*
X10372566Y-13237340D01*
X10386851Y-13265911D01*
X10386851Y-13423054D01*
X10972566Y-13108769D02*
X10715423Y-13494483D01*
X11358280Y-13123054D02*
X11386851Y-13123054D01*
X11415423Y-13137340D01*
X11429708Y-13151626D01*
X11443994Y-13180197D01*
X11458280Y-13237340D01*
X11458280Y-13308769D01*
X11443994Y-13365911D01*
X11429708Y-13394483D01*
X11415423Y-13408769D01*
X11386851Y-13423054D01*
X11358280Y-13423054D01*
X11329708Y-13408769D01*
X11315423Y-13394483D01*
X11301137Y-13365911D01*
X11286851Y-13308769D01*
X11286851Y-13237340D01*
X11301137Y-13180197D01*
X11315423Y-13151626D01*
X11329708Y-13137340D01*
X11358280Y-13123054D01*
X11586851Y-13394483D02*
X11601137Y-13408769D01*
X11586851Y-13423054D01*
X11572566Y-13408769D01*
X11586851Y-13394483D01*
X11586851Y-13423054D01*
X11786851Y-13123054D02*
X11815423Y-13123054D01*
X11843994Y-13137340D01*
X11858280Y-13151626D01*
X11872565Y-13180197D01*
X11886851Y-13237340D01*
X11886851Y-13308769D01*
X11872565Y-13365911D01*
X11858280Y-13394483D01*
X11843994Y-13408769D01*
X11815423Y-13423054D01*
X11786851Y-13423054D01*
X11758280Y-13408769D01*
X11743994Y-13394483D01*
X11729708Y-13365911D01*
X11715423Y-13308769D01*
X11715423Y-13237340D01*
X11729708Y-13180197D01*
X11743994Y-13151626D01*
X11758280Y-13137340D01*
X11786851Y-13123054D01*
X11986851Y-13123054D02*
X12172565Y-13123054D01*
X12072565Y-13237340D01*
X12115423Y-13237340D01*
X12143994Y-13251626D01*
X12158280Y-13265911D01*
X12172565Y-13294483D01*
X12172565Y-13365911D01*
X12158280Y-13394483D01*
X12143994Y-13408769D01*
X12115423Y-13423054D01*
X12029708Y-13423054D01*
X12001137Y-13408769D01*
X11986851Y-13394483D01*
X12286851Y-13151626D02*
X12301137Y-13137340D01*
X12329708Y-13123054D01*
X12401137Y-13123054D01*
X12429708Y-13137340D01*
X12443994Y-13151626D01*
X12458280Y-13180197D01*
X12458280Y-13208769D01*
X12443994Y-13251626D01*
X12272565Y-13423054D01*
X12458280Y-13423054D01*
X12572566Y-13123054D02*
X12572566Y-13180197D01*
X12686851Y-13123054D02*
X12686851Y-13180197D01*
X13129708Y-13537340D02*
X13115423Y-13523054D01*
X13086851Y-13480197D01*
X13072565Y-13451626D01*
X13058280Y-13408769D01*
X13043994Y-13337340D01*
X13043994Y-13280197D01*
X13058280Y-13208769D01*
X13072565Y-13165911D01*
X13086851Y-13137340D01*
X13115423Y-13094483D01*
X13129708Y-13080197D01*
X13401137Y-13423054D02*
X13229708Y-13423054D01*
X13315423Y-13423054D02*
X13315423Y-13123054D01*
X13286851Y-13165911D01*
X13258280Y-13194483D01*
X13229708Y-13208769D01*
X13658280Y-13123054D02*
X13601137Y-13123054D01*
X13572565Y-13137340D01*
X13558280Y-13151626D01*
X13529708Y-13194483D01*
X13515423Y-13251626D01*
X13515423Y-13365911D01*
X13529708Y-13394483D01*
X13543994Y-13408769D01*
X13572565Y-13423054D01*
X13629708Y-13423054D01*
X13658280Y-13408769D01*
X13672565Y-13394483D01*
X13686851Y-13365911D01*
X13686851Y-13294483D01*
X13672565Y-13265911D01*
X13658280Y-13251626D01*
X13629708Y-13237340D01*
X13572565Y-13237340D01*
X13543994Y-13251626D01*
X13529708Y-13265911D01*
X13515423Y-13294483D01*
X14043994Y-13423054D02*
X14043994Y-13123054D01*
X14172565Y-13423054D02*
X14172565Y-13265911D01*
X14158280Y-13237340D01*
X14129708Y-13223054D01*
X14086851Y-13223054D01*
X14058280Y-13237340D01*
X14043994Y-13251626D01*
X14358280Y-13423054D02*
X14329708Y-13408769D01*
X14315423Y-13394483D01*
X14301137Y-13365911D01*
X14301137Y-13280197D01*
X14315423Y-13251626D01*
X14329708Y-13237340D01*
X14358280Y-13223054D01*
X14401137Y-13223054D01*
X14429708Y-13237340D01*
X14443994Y-13251626D01*
X14458280Y-13280197D01*
X14458280Y-13365911D01*
X14443994Y-13394483D01*
X14429708Y-13408769D01*
X14401137Y-13423054D01*
X14358280Y-13423054D01*
X14629708Y-13423054D02*
X14601137Y-13408769D01*
X14586851Y-13380197D01*
X14586851Y-13123054D01*
X14858280Y-13408769D02*
X14829708Y-13423054D01*
X14772566Y-13423054D01*
X14743994Y-13408769D01*
X14729708Y-13380197D01*
X14729708Y-13265911D01*
X14743994Y-13237340D01*
X14772566Y-13223054D01*
X14829708Y-13223054D01*
X14858280Y-13237340D01*
X14872566Y-13265911D01*
X14872566Y-13294483D01*
X14729708Y-13323054D01*
X14986851Y-13408769D02*
X15015423Y-13423054D01*
X15072566Y-13423054D01*
X15101137Y-13408769D01*
X15115423Y-13380197D01*
X15115423Y-13365911D01*
X15101137Y-13337340D01*
X15072566Y-13323054D01*
X15029708Y-13323054D01*
X15001137Y-13308769D01*
X14986851Y-13280197D01*
X14986851Y-13265911D01*
X15001137Y-13237340D01*
X15029708Y-13223054D01*
X15072566Y-13223054D01*
X15101137Y-13237340D01*
X15215423Y-13537340D02*
X15229708Y-13523054D01*
X15258280Y-13480197D01*
X15272566Y-13451626D01*
X15286851Y-13408769D01*
X15301137Y-13337340D01*
X15301137Y-13280197D01*
X15286851Y-13208769D01*
X15272566Y-13165911D01*
X15258280Y-13137340D01*
X15229708Y-13094483D01*
X15215423Y-13080197D01*
X8408242Y-13633302D02*
X8408242Y-13733378D01*
X8358204Y-13683340D02*
X8458280Y-13683340D01*
X8886851Y-13819054D02*
X8715423Y-13819054D01*
X8801137Y-13819054D02*
X8801137Y-13519054D01*
X8772566Y-13561911D01*
X8743994Y-13590483D01*
X8715423Y-13604769D01*
X9015423Y-13790483D02*
X9029709Y-13804769D01*
X9015423Y-13819054D01*
X9001137Y-13804769D01*
X9015423Y-13790483D01*
X9015423Y-13819054D01*
X9215423Y-13519054D02*
X9243994Y-13519054D01*
X9272566Y-13533340D01*
X9286851Y-13547626D01*
X9301137Y-13576197D01*
X9315423Y-13633340D01*
X9315423Y-13704769D01*
X9301137Y-13761911D01*
X9286851Y-13790483D01*
X9272566Y-13804769D01*
X9243994Y-13819054D01*
X9215423Y-13819054D01*
X9186851Y-13804769D01*
X9172566Y-13790483D01*
X9158280Y-13761911D01*
X9143994Y-13704769D01*
X9143994Y-13633340D01*
X9158280Y-13576197D01*
X9172566Y-13547626D01*
X9186851Y-13533340D01*
X9215423Y-13519054D01*
X9501137Y-13519054D02*
X9529709Y-13519054D01*
X9558280Y-13533340D01*
X9572566Y-13547626D01*
X9586851Y-13576197D01*
X9601137Y-13633340D01*
X9601137Y-13704769D01*
X9586851Y-13761911D01*
X9572566Y-13790483D01*
X9558280Y-13804769D01*
X9529709Y-13819054D01*
X9501137Y-13819054D01*
X9472566Y-13804769D01*
X9458280Y-13790483D01*
X9443994Y-13761911D01*
X9429709Y-13704769D01*
X9429709Y-13633340D01*
X9443994Y-13576197D01*
X9458280Y-13547626D01*
X9472566Y-13533340D01*
X9501137Y-13519054D01*
X9729709Y-13819054D02*
X9729709Y-13619054D01*
X9729709Y-13647626D02*
X9743994Y-13633340D01*
X9772566Y-13619054D01*
X9815423Y-13619054D01*
X9843994Y-13633340D01*
X9858280Y-13661911D01*
X9858280Y-13819054D01*
X9858280Y-13661911D02*
X9872566Y-13633340D01*
X9901137Y-13619054D01*
X9943994Y-13619054D01*
X9972566Y-13633340D01*
X9986851Y-13661911D01*
X9986851Y-13819054D01*
X10129709Y-13819054D02*
X10129709Y-13619054D01*
X10129709Y-13647626D02*
X10143994Y-13633340D01*
X10172566Y-13619054D01*
X10215423Y-13619054D01*
X10243994Y-13633340D01*
X10258280Y-13661911D01*
X10258280Y-13819054D01*
X10258280Y-13661911D02*
X10272566Y-13633340D01*
X10301137Y-13619054D01*
X10343994Y-13619054D01*
X10372566Y-13633340D01*
X10386851Y-13661911D01*
X10386851Y-13819054D01*
X10972566Y-13504769D02*
X10715423Y-13890483D01*
X11358280Y-13519054D02*
X11386851Y-13519054D01*
X11415423Y-13533340D01*
X11429708Y-13547626D01*
X11443994Y-13576197D01*
X11458280Y-13633340D01*
X11458280Y-13704769D01*
X11443994Y-13761911D01*
X11429708Y-13790483D01*
X11415423Y-13804769D01*
X11386851Y-13819054D01*
X11358280Y-13819054D01*
X11329708Y-13804769D01*
X11315423Y-13790483D01*
X11301137Y-13761911D01*
X11286851Y-13704769D01*
X11286851Y-13633340D01*
X11301137Y-13576197D01*
X11315423Y-13547626D01*
X11329708Y-13533340D01*
X11358280Y-13519054D01*
X11586851Y-13790483D02*
X11601137Y-13804769D01*
X11586851Y-13819054D01*
X11572566Y-13804769D01*
X11586851Y-13790483D01*
X11586851Y-13819054D01*
X11786851Y-13519054D02*
X11815423Y-13519054D01*
X11843994Y-13533340D01*
X11858280Y-13547626D01*
X11872565Y-13576197D01*
X11886851Y-13633340D01*
X11886851Y-13704769D01*
X11872565Y-13761911D01*
X11858280Y-13790483D01*
X11843994Y-13804769D01*
X11815423Y-13819054D01*
X11786851Y-13819054D01*
X11758280Y-13804769D01*
X11743994Y-13790483D01*
X11729708Y-13761911D01*
X11715423Y-13704769D01*
X11715423Y-13633340D01*
X11729708Y-13576197D01*
X11743994Y-13547626D01*
X11758280Y-13533340D01*
X11786851Y-13519054D01*
X11986851Y-13519054D02*
X12172565Y-13519054D01*
X12072565Y-13633340D01*
X12115423Y-13633340D01*
X12143994Y-13647626D01*
X12158280Y-13661911D01*
X12172565Y-13690483D01*
X12172565Y-13761911D01*
X12158280Y-13790483D01*
X12143994Y-13804769D01*
X12115423Y-13819054D01*
X12029708Y-13819054D01*
X12001137Y-13804769D01*
X11986851Y-13790483D01*
X12315423Y-13819054D02*
X12372565Y-13819054D01*
X12401137Y-13804769D01*
X12415423Y-13790483D01*
X12443994Y-13747626D01*
X12458280Y-13690483D01*
X12458280Y-13576197D01*
X12443994Y-13547626D01*
X12429708Y-13533340D01*
X12401137Y-13519054D01*
X12343994Y-13519054D01*
X12315423Y-13533340D01*
X12301137Y-13547626D01*
X12286851Y-13576197D01*
X12286851Y-13647626D01*
X12301137Y-13676197D01*
X12315423Y-13690483D01*
X12343994Y-13704769D01*
X12401137Y-13704769D01*
X12429708Y-13690483D01*
X12443994Y-13676197D01*
X12458280Y-13647626D01*
X12572566Y-13519054D02*
X12572566Y-13576197D01*
X12686851Y-13519054D02*
X12686851Y-13576197D01*
X13129708Y-13933340D02*
X13115423Y-13919054D01*
X13086851Y-13876197D01*
X13072565Y-13847626D01*
X13058280Y-13804769D01*
X13043994Y-13733340D01*
X13043994Y-13676197D01*
X13058280Y-13604769D01*
X13072565Y-13561911D01*
X13086851Y-13533340D01*
X13115423Y-13490483D01*
X13129708Y-13476197D01*
X13401137Y-13819054D02*
X13229708Y-13819054D01*
X13315423Y-13819054D02*
X13315423Y-13519054D01*
X13286851Y-13561911D01*
X13258280Y-13590483D01*
X13229708Y-13604769D01*
X13658280Y-13519054D02*
X13601137Y-13519054D01*
X13572565Y-13533340D01*
X13558280Y-13547626D01*
X13529708Y-13590483D01*
X13515423Y-13647626D01*
X13515423Y-13761911D01*
X13529708Y-13790483D01*
X13543994Y-13804769D01*
X13572565Y-13819054D01*
X13629708Y-13819054D01*
X13658280Y-13804769D01*
X13672565Y-13790483D01*
X13686851Y-13761911D01*
X13686851Y-13690483D01*
X13672565Y-13661911D01*
X13658280Y-13647626D01*
X13629708Y-13633340D01*
X13572565Y-13633340D01*
X13543994Y-13647626D01*
X13529708Y-13661911D01*
X13515423Y-13690483D01*
X14043994Y-13819054D02*
X14043994Y-13519054D01*
X14172565Y-13819054D02*
X14172565Y-13661911D01*
X14158280Y-13633340D01*
X14129708Y-13619054D01*
X14086851Y-13619054D01*
X14058280Y-13633340D01*
X14043994Y-13647626D01*
X14358280Y-13819054D02*
X14329708Y-13804769D01*
X14315423Y-13790483D01*
X14301137Y-13761911D01*
X14301137Y-13676197D01*
X14315423Y-13647626D01*
X14329708Y-13633340D01*
X14358280Y-13619054D01*
X14401137Y-13619054D01*
X14429708Y-13633340D01*
X14443994Y-13647626D01*
X14458280Y-13676197D01*
X14458280Y-13761911D01*
X14443994Y-13790483D01*
X14429708Y-13804769D01*
X14401137Y-13819054D01*
X14358280Y-13819054D01*
X14629708Y-13819054D02*
X14601137Y-13804769D01*
X14586851Y-13776197D01*
X14586851Y-13519054D01*
X14858280Y-13804769D02*
X14829708Y-13819054D01*
X14772566Y-13819054D01*
X14743994Y-13804769D01*
X14729708Y-13776197D01*
X14729708Y-13661911D01*
X14743994Y-13633340D01*
X14772566Y-13619054D01*
X14829708Y-13619054D01*
X14858280Y-13633340D01*
X14872566Y-13661911D01*
X14872566Y-13690483D01*
X14729708Y-13719054D01*
X14986851Y-13804769D02*
X15015423Y-13819054D01*
X15072566Y-13819054D01*
X15101137Y-13804769D01*
X15115423Y-13776197D01*
X15115423Y-13761911D01*
X15101137Y-13733340D01*
X15072566Y-13719054D01*
X15029708Y-13719054D01*
X15001137Y-13704769D01*
X14986851Y-13676197D01*
X14986851Y-13661911D01*
X15001137Y-13633340D01*
X15029708Y-13619054D01*
X15072566Y-13619054D01*
X15101137Y-13633340D01*
X15215423Y-13933340D02*
X15229708Y-13919054D01*
X15258280Y-13876197D01*
X15272566Y-13847626D01*
X15286851Y-13804769D01*
X15301137Y-13733340D01*
X15301137Y-13676197D01*
X15286851Y-13604769D01*
X15272566Y-13561911D01*
X15258280Y-13533340D01*
X15229708Y-13490483D01*
X15215423Y-13476197D01*
X8443401Y-14115261D02*
X8443401Y-14043419D01*
X8371558Y-14043419D01*
X8371558Y-14115261D01*
X8443401Y-14115261D01*
X8886851Y-14215054D02*
X8715423Y-14215054D01*
X8801137Y-14215054D02*
X8801137Y-13915054D01*
X8772566Y-13957911D01*
X8743994Y-13986483D01*
X8715423Y-14000769D01*
X9015423Y-14186483D02*
X9029709Y-14200769D01*
X9015423Y-14215054D01*
X9001137Y-14200769D01*
X9015423Y-14186483D01*
X9015423Y-14215054D01*
X9215423Y-13915054D02*
X9243994Y-13915054D01*
X9272566Y-13929340D01*
X9286851Y-13943626D01*
X9301137Y-13972197D01*
X9315423Y-14029340D01*
X9315423Y-14100769D01*
X9301137Y-14157911D01*
X9286851Y-14186483D01*
X9272566Y-14200769D01*
X9243994Y-14215054D01*
X9215423Y-14215054D01*
X9186851Y-14200769D01*
X9172566Y-14186483D01*
X9158280Y-14157911D01*
X9143994Y-14100769D01*
X9143994Y-14029340D01*
X9158280Y-13972197D01*
X9172566Y-13943626D01*
X9186851Y-13929340D01*
X9215423Y-13915054D01*
X9429709Y-13943626D02*
X9443994Y-13929340D01*
X9472566Y-13915054D01*
X9543994Y-13915054D01*
X9572566Y-13929340D01*
X9586851Y-13943626D01*
X9601137Y-13972197D01*
X9601137Y-14000769D01*
X9586851Y-14043626D01*
X9415423Y-14215054D01*
X9601137Y-14215054D01*
X9729709Y-14215054D02*
X9729709Y-14015054D01*
X9729709Y-14043626D02*
X9743994Y-14029340D01*
X9772566Y-14015054D01*
X9815423Y-14015054D01*
X9843994Y-14029340D01*
X9858280Y-14057911D01*
X9858280Y-14215054D01*
X9858280Y-14057911D02*
X9872566Y-14029340D01*
X9901137Y-14015054D01*
X9943994Y-14015054D01*
X9972566Y-14029340D01*
X9986851Y-14057911D01*
X9986851Y-14215054D01*
X10129709Y-14215054D02*
X10129709Y-14015054D01*
X10129709Y-14043626D02*
X10143994Y-14029340D01*
X10172566Y-14015054D01*
X10215423Y-14015054D01*
X10243994Y-14029340D01*
X10258280Y-14057911D01*
X10258280Y-14215054D01*
X10258280Y-14057911D02*
X10272566Y-14029340D01*
X10301137Y-14015054D01*
X10343994Y-14015054D01*
X10372566Y-14029340D01*
X10386851Y-14057911D01*
X10386851Y-14215054D01*
X10972566Y-13900769D02*
X10715423Y-14286483D01*
X11358280Y-13915054D02*
X11386851Y-13915054D01*
X11415423Y-13929340D01*
X11429708Y-13943626D01*
X11443994Y-13972197D01*
X11458280Y-14029340D01*
X11458280Y-14100769D01*
X11443994Y-14157911D01*
X11429708Y-14186483D01*
X11415423Y-14200769D01*
X11386851Y-14215054D01*
X11358280Y-14215054D01*
X11329708Y-14200769D01*
X11315423Y-14186483D01*
X11301137Y-14157911D01*
X11286851Y-14100769D01*
X11286851Y-14029340D01*
X11301137Y-13972197D01*
X11315423Y-13943626D01*
X11329708Y-13929340D01*
X11358280Y-13915054D01*
X11586851Y-14186483D02*
X11601137Y-14200769D01*
X11586851Y-14215054D01*
X11572566Y-14200769D01*
X11586851Y-14186483D01*
X11586851Y-14215054D01*
X11786851Y-13915054D02*
X11815423Y-13915054D01*
X11843994Y-13929340D01*
X11858280Y-13943626D01*
X11872565Y-13972197D01*
X11886851Y-14029340D01*
X11886851Y-14100769D01*
X11872565Y-14157911D01*
X11858280Y-14186483D01*
X11843994Y-14200769D01*
X11815423Y-14215054D01*
X11786851Y-14215054D01*
X11758280Y-14200769D01*
X11743994Y-14186483D01*
X11729708Y-14157911D01*
X11715423Y-14100769D01*
X11715423Y-14029340D01*
X11729708Y-13972197D01*
X11743994Y-13943626D01*
X11758280Y-13929340D01*
X11786851Y-13915054D01*
X12143994Y-14015054D02*
X12143994Y-14215054D01*
X12072565Y-13900769D02*
X12001137Y-14115054D01*
X12186851Y-14115054D01*
X12358280Y-13915054D02*
X12386851Y-13915054D01*
X12415423Y-13929340D01*
X12429708Y-13943626D01*
X12443994Y-13972197D01*
X12458280Y-14029340D01*
X12458280Y-14100769D01*
X12443994Y-14157911D01*
X12429708Y-14186483D01*
X12415423Y-14200769D01*
X12386851Y-14215054D01*
X12358280Y-14215054D01*
X12329708Y-14200769D01*
X12315423Y-14186483D01*
X12301137Y-14157911D01*
X12286851Y-14100769D01*
X12286851Y-14029340D01*
X12301137Y-13972197D01*
X12315423Y-13943626D01*
X12329708Y-13929340D01*
X12358280Y-13915054D01*
X12572566Y-13915054D02*
X12572566Y-13972197D01*
X12686851Y-13915054D02*
X12686851Y-13972197D01*
X13129708Y-14329340D02*
X13115423Y-14315054D01*
X13086851Y-14272197D01*
X13072565Y-14243626D01*
X13058280Y-14200769D01*
X13043994Y-14129340D01*
X13043994Y-14072197D01*
X13058280Y-14000769D01*
X13072565Y-13957911D01*
X13086851Y-13929340D01*
X13115423Y-13886483D01*
X13129708Y-13872197D01*
X13372565Y-14015054D02*
X13372565Y-14215054D01*
X13301137Y-13900769D02*
X13229708Y-14115054D01*
X13415423Y-14115054D01*
X13586851Y-13915054D02*
X13615423Y-13915054D01*
X13643994Y-13929340D01*
X13658280Y-13943626D01*
X13672565Y-13972197D01*
X13686851Y-14029340D01*
X13686851Y-14100769D01*
X13672565Y-14157911D01*
X13658280Y-14186483D01*
X13643994Y-14200769D01*
X13615423Y-14215054D01*
X13586851Y-14215054D01*
X13558280Y-14200769D01*
X13543994Y-14186483D01*
X13529708Y-14157911D01*
X13515423Y-14100769D01*
X13515423Y-14029340D01*
X13529708Y-13972197D01*
X13543994Y-13943626D01*
X13558280Y-13929340D01*
X13586851Y-13915054D01*
X14043994Y-14215054D02*
X14043994Y-13915054D01*
X14172565Y-14215054D02*
X14172565Y-14057911D01*
X14158280Y-14029340D01*
X14129708Y-14015054D01*
X14086851Y-14015054D01*
X14058280Y-14029340D01*
X14043994Y-14043626D01*
X14358280Y-14215054D02*
X14329708Y-14200769D01*
X14315423Y-14186483D01*
X14301137Y-14157911D01*
X14301137Y-14072197D01*
X14315423Y-14043626D01*
X14329708Y-14029340D01*
X14358280Y-14015054D01*
X14401137Y-14015054D01*
X14429708Y-14029340D01*
X14443994Y-14043626D01*
X14458280Y-14072197D01*
X14458280Y-14157911D01*
X14443994Y-14186483D01*
X14429708Y-14200769D01*
X14401137Y-14215054D01*
X14358280Y-14215054D01*
X14629708Y-14215054D02*
X14601137Y-14200769D01*
X14586851Y-14172197D01*
X14586851Y-13915054D01*
X14858280Y-14200769D02*
X14829708Y-14215054D01*
X14772566Y-14215054D01*
X14743994Y-14200769D01*
X14729708Y-14172197D01*
X14729708Y-14057911D01*
X14743994Y-14029340D01*
X14772566Y-14015054D01*
X14829708Y-14015054D01*
X14858280Y-14029340D01*
X14872566Y-14057911D01*
X14872566Y-14086483D01*
X14729708Y-14115054D01*
X14986851Y-14200769D02*
X15015423Y-14215054D01*
X15072566Y-14215054D01*
X15101137Y-14200769D01*
X15115423Y-14172197D01*
X15115423Y-14157911D01*
X15101137Y-14129340D01*
X15072566Y-14115054D01*
X15029708Y-14115054D01*
X15001137Y-14100769D01*
X14986851Y-14072197D01*
X14986851Y-14057911D01*
X15001137Y-14029340D01*
X15029708Y-14015054D01*
X15072566Y-14015054D01*
X15101137Y-14029340D01*
X15215423Y-14329340D02*
X15229708Y-14315054D01*
X15258280Y-14272197D01*
X15272566Y-14243626D01*
X15286851Y-14200769D01*
X15301137Y-14129340D01*
X15301137Y-14072197D01*
X15286851Y-14000769D01*
X15272566Y-13957911D01*
X15258280Y-13929340D01*
X15229708Y-13886483D01*
X15215423Y-13872197D01*
X8320780Y-14612840D02*
X8458280Y-14475340D01*
X8320780Y-14337840D01*
X8183280Y-14475340D01*
X8320780Y-14612840D01*
X8715423Y-14339626D02*
X8729709Y-14325340D01*
X8758280Y-14311054D01*
X8829709Y-14311054D01*
X8858280Y-14325340D01*
X8872566Y-14339626D01*
X8886851Y-14368197D01*
X8886851Y-14396769D01*
X8872566Y-14439626D01*
X8701137Y-14611054D01*
X8886851Y-14611054D01*
X9015423Y-14582483D02*
X9029709Y-14596769D01*
X9015423Y-14611054D01*
X9001137Y-14596769D01*
X9015423Y-14582483D01*
X9015423Y-14611054D01*
X9129708Y-14311054D02*
X9329708Y-14311054D01*
X9201137Y-14611054D01*
X9586851Y-14311054D02*
X9443994Y-14311054D01*
X9429709Y-14453911D01*
X9443994Y-14439626D01*
X9472566Y-14425340D01*
X9543994Y-14425340D01*
X9572566Y-14439626D01*
X9586851Y-14453911D01*
X9601137Y-14482483D01*
X9601137Y-14553911D01*
X9586851Y-14582483D01*
X9572566Y-14596769D01*
X9543994Y-14611054D01*
X9472566Y-14611054D01*
X9443994Y-14596769D01*
X9429709Y-14582483D01*
X9729709Y-14611054D02*
X9729709Y-14411054D01*
X9729709Y-14439626D02*
X9743994Y-14425340D01*
X9772566Y-14411054D01*
X9815423Y-14411054D01*
X9843994Y-14425340D01*
X9858280Y-14453911D01*
X9858280Y-14611054D01*
X9858280Y-14453911D02*
X9872566Y-14425340D01*
X9901137Y-14411054D01*
X9943994Y-14411054D01*
X9972566Y-14425340D01*
X9986851Y-14453911D01*
X9986851Y-14611054D01*
X10129709Y-14611054D02*
X10129709Y-14411054D01*
X10129709Y-14439626D02*
X10143994Y-14425340D01*
X10172566Y-14411054D01*
X10215423Y-14411054D01*
X10243994Y-14425340D01*
X10258280Y-14453911D01*
X10258280Y-14611054D01*
X10258280Y-14453911D02*
X10272566Y-14425340D01*
X10301137Y-14411054D01*
X10343994Y-14411054D01*
X10372566Y-14425340D01*
X10386851Y-14453911D01*
X10386851Y-14611054D01*
X10972566Y-14296769D02*
X10715423Y-14682483D01*
X11358280Y-14311054D02*
X11386851Y-14311054D01*
X11415423Y-14325340D01*
X11429708Y-14339626D01*
X11443994Y-14368197D01*
X11458280Y-14425340D01*
X11458280Y-14496769D01*
X11443994Y-14553911D01*
X11429708Y-14582483D01*
X11415423Y-14596769D01*
X11386851Y-14611054D01*
X11358280Y-14611054D01*
X11329708Y-14596769D01*
X11315423Y-14582483D01*
X11301137Y-14553911D01*
X11286851Y-14496769D01*
X11286851Y-14425340D01*
X11301137Y-14368197D01*
X11315423Y-14339626D01*
X11329708Y-14325340D01*
X11358280Y-14311054D01*
X11586851Y-14582483D02*
X11601137Y-14596769D01*
X11586851Y-14611054D01*
X11572566Y-14596769D01*
X11586851Y-14582483D01*
X11586851Y-14611054D01*
X11886851Y-14611054D02*
X11715423Y-14611054D01*
X11801137Y-14611054D02*
X11801137Y-14311054D01*
X11772565Y-14353911D01*
X11743994Y-14382483D01*
X11715423Y-14396769D01*
X12072565Y-14311054D02*
X12101137Y-14311054D01*
X12129708Y-14325340D01*
X12143994Y-14339626D01*
X12158280Y-14368197D01*
X12172565Y-14425340D01*
X12172565Y-14496769D01*
X12158280Y-14553911D01*
X12143994Y-14582483D01*
X12129708Y-14596769D01*
X12101137Y-14611054D01*
X12072565Y-14611054D01*
X12043994Y-14596769D01*
X12029708Y-14582483D01*
X12015423Y-14553911D01*
X12001137Y-14496769D01*
X12001137Y-14425340D01*
X12015423Y-14368197D01*
X12029708Y-14339626D01*
X12043994Y-14325340D01*
X12072565Y-14311054D01*
X12343994Y-14439626D02*
X12315423Y-14425340D01*
X12301137Y-14411054D01*
X12286851Y-14382483D01*
X12286851Y-14368197D01*
X12301137Y-14339626D01*
X12315423Y-14325340D01*
X12343994Y-14311054D01*
X12401137Y-14311054D01*
X12429708Y-14325340D01*
X12443994Y-14339626D01*
X12458280Y-14368197D01*
X12458280Y-14382483D01*
X12443994Y-14411054D01*
X12429708Y-14425340D01*
X12401137Y-14439626D01*
X12343994Y-14439626D01*
X12315423Y-14453911D01*
X12301137Y-14468197D01*
X12286851Y-14496769D01*
X12286851Y-14553911D01*
X12301137Y-14582483D01*
X12315423Y-14596769D01*
X12343994Y-14611054D01*
X12401137Y-14611054D01*
X12429708Y-14596769D01*
X12443994Y-14582483D01*
X12458280Y-14553911D01*
X12458280Y-14496769D01*
X12443994Y-14468197D01*
X12429708Y-14453911D01*
X12401137Y-14439626D01*
X12572566Y-14311054D02*
X12572566Y-14368197D01*
X12686851Y-14311054D02*
X12686851Y-14368197D01*
X13129708Y-14725340D02*
X13115423Y-14711054D01*
X13086851Y-14668197D01*
X13072565Y-14639626D01*
X13058280Y-14596769D01*
X13043994Y-14525340D01*
X13043994Y-14468197D01*
X13058280Y-14396769D01*
X13072565Y-14353911D01*
X13086851Y-14325340D01*
X13115423Y-14282483D01*
X13129708Y-14268197D01*
X13372565Y-14411054D02*
X13372565Y-14611054D01*
X13301137Y-14296769D02*
X13229708Y-14511054D01*
X13415423Y-14511054D01*
X13758280Y-14611054D02*
X13758280Y-14311054D01*
X13886851Y-14611054D02*
X13886851Y-14453911D01*
X13872565Y-14425340D01*
X13843994Y-14411054D01*
X13801137Y-14411054D01*
X13772565Y-14425340D01*
X13758280Y-14439626D01*
X14072565Y-14611054D02*
X14043994Y-14596769D01*
X14029708Y-14582483D01*
X14015423Y-14553911D01*
X14015423Y-14468197D01*
X14029708Y-14439626D01*
X14043994Y-14425340D01*
X14072565Y-14411054D01*
X14115423Y-14411054D01*
X14143994Y-14425340D01*
X14158280Y-14439626D01*
X14172565Y-14468197D01*
X14172565Y-14553911D01*
X14158280Y-14582483D01*
X14143994Y-14596769D01*
X14115423Y-14611054D01*
X14072565Y-14611054D01*
X14343994Y-14611054D02*
X14315423Y-14596769D01*
X14301137Y-14568197D01*
X14301137Y-14311054D01*
X14572566Y-14596769D02*
X14543994Y-14611054D01*
X14486851Y-14611054D01*
X14458280Y-14596769D01*
X14443994Y-14568197D01*
X14443994Y-14453911D01*
X14458280Y-14425340D01*
X14486851Y-14411054D01*
X14543994Y-14411054D01*
X14572566Y-14425340D01*
X14586851Y-14453911D01*
X14586851Y-14482483D01*
X14443994Y-14511054D01*
X14701137Y-14596769D02*
X14729708Y-14611054D01*
X14786851Y-14611054D01*
X14815423Y-14596769D01*
X14829708Y-14568197D01*
X14829708Y-14553911D01*
X14815423Y-14525340D01*
X14786851Y-14511054D01*
X14743994Y-14511054D01*
X14715423Y-14496769D01*
X14701137Y-14468197D01*
X14701137Y-14453911D01*
X14715423Y-14425340D01*
X14743994Y-14411054D01*
X14786851Y-14411054D01*
X14815423Y-14425340D01*
X14929708Y-14725340D02*
X14943994Y-14711054D01*
X14972566Y-14668197D01*
X14986851Y-14639626D01*
X15001137Y-14596769D01*
X15015423Y-14525340D01*
X15015423Y-14468197D01*
X15001137Y-14396769D01*
X14986851Y-14353911D01*
X14972566Y-14325340D01*
X14943994Y-14282483D01*
X14929708Y-14268197D01*
M02*
