M48
;DRILL file {KiCad 4.0.2-stable} date 4/7/2016 22:45:33
;FORMAT={-:-/ absolute / inch / decimal}
FMAT,2
INCH,TZ
T1C0.016
T2C0.032
T3C0.039
T4C0.040
T5C0.108
%
G90
G05
M72
T1
X5.0274Y-2.7601
T2
X3.982Y-3.151
X3.982Y-3.551
X3.982Y-4.151
X3.982Y-4.551
X4.302Y-3.151
X4.302Y-3.551
X4.302Y-4.151
X4.302Y-4.551
X4.622Y-3.151
X4.622Y-3.551
X4.622Y-4.151
X4.622Y-4.551
X4.902Y-4.151
X4.902Y-4.551
X4.922Y-3.151
X4.922Y-3.551
T3
X3.982Y-2.871
X3.982Y-2.971
X3.982Y-3.851
X3.982Y-3.951
X4.302Y-2.871
X4.302Y-2.971
X4.302Y-3.851
X4.302Y-3.951
X4.622Y-2.871
X4.622Y-2.971
X4.622Y-3.851
X4.622Y-3.951
X4.902Y-3.851
X4.902Y-3.951
X4.922Y-2.871
X4.922Y-2.971
T4
X3.6615Y-2.5671
X3.6615Y-2.6671
X3.7615Y-2.5671
X3.7615Y-2.6671
X3.8615Y-2.5671
X3.8615Y-2.6671
X3.9615Y-2.5671
X3.9615Y-2.6671
X4.0615Y-2.5671
X4.0615Y-2.6671
X4.1615Y-2.5671
X4.1615Y-2.6671
X4.2615Y-2.5671
X4.2615Y-2.6671
X4.3615Y-2.5671
X4.3615Y-2.6671
X4.4615Y-2.5671
X4.4615Y-2.6671
X4.5615Y-2.5671
X4.5615Y-2.6671
X4.6576Y-2.6671
X4.6615Y-2.5671
X4.7615Y-2.5671
X4.7615Y-2.6671
X4.8615Y-2.5671
X4.8615Y-2.6671
X4.9615Y-2.5671
X4.9615Y-2.6671
X5.0615Y-2.5671
X5.0615Y-2.6671
X5.1615Y-2.5671
X5.1615Y-2.6671
X5.2615Y-2.5671
X5.2615Y-2.6671
X5.3615Y-2.5671
X5.3615Y-2.6671
X5.4615Y-2.5671
X5.4615Y-2.6671
X5.5615Y-2.5671
X5.5615Y-2.6671
T5
X3.4698Y-2.6088
X3.4698Y-4.5576
X5.7533Y-2.6088
X5.7533Y-4.5576
T0
M30
